<?xml version="1.0" encoding="utf-8" standalone="no"?>
<!DOCTYPE svg PUBLIC "-//W3C//DTD SVG 1.1//EN"
  "http://www.w3.org/Graphics/SVG/1.1/DTD/svg11.dtd">
<svg xmlns:xlink="http://www.w3.org/1999/xlink" width="611.055625pt" height="365.254493pt" viewBox="0 0 611.055625 365.254493" xmlns="http://www.w3.org/2000/svg" version="1.1">
 <metadata>
  <rdf:RDF xmlns:dc="http://purl.org/dc/elements/1.1/" xmlns:cc="http://creativecommons.org/ns#" xmlns:rdf="http://www.w3.org/1999/02/22-rdf-syntax-ns#">
   <cc:Work>
    <dc:type rdf:resource="http://purl.org/dc/dcmitype/StillImage"/>
    <dc:date>2026-05-21T10:58:27.148370</dc:date>
    <dc:format>image/svg+xml</dc:format>
    <dc:creator>
     <cc:Agent>
      <dc:title>Matplotlib v3.10.0, https://matplotlib.org/</dc:title>
     </cc:Agent>
    </dc:creator>
   </cc:Work>
  </rdf:RDF>
 </metadata>
 <defs>
  <style type="text/css">*{stroke-linejoin: round; stroke-linecap: butt}</style>
 </defs>
 <g id="figure_1">
  <g id="patch_1">
   <path d="M 0 365.254493 
L 611.055625 365.254493 
L 611.055625 0 
L 0 0 
z
" style="fill: #ffffff"/>
  </g>
  <g id="axes_1">
   <g id="patch_2">
    <path d="M 42.815625 301.11794 
L 603.855625 301.11794 
L 603.855625 22.7925 
L 42.815625 22.7925 
z
" style="fill: #ffffff"/>
   </g>
   <g id="patch_3">
    <path d="M 68.317443 301.11794 
L 121.693342 301.11794 
L 121.693342 114.008401 
L 68.317443 114.008401 
z
" clip-path="url(#p360eaca282)" style="fill: #1f77b4"/>
   </g>
   <g id="patch_4">
    <path d="M 364.850213 301.11794 
L 418.226111 301.11794 
L 418.226111 114.008401 
L 364.850213 114.008401 
z
" clip-path="url(#p360eaca282)" style="fill: #1f77b4"/>
   </g>
   <g id="patch_5">
    <path d="M 121.693342 301.11794 
L 175.06924 301.11794 
L 175.06924 89.060462 
L 121.693342 89.060462 
z
" clip-path="url(#p360eaca282)" style="fill: #ff7f0e"/>
   </g>
   <g id="patch_6">
    <path d="M 418.226111 301.11794 
L 471.60201 301.11794 
L 471.60201 89.060462 
L 418.226111 89.060462 
z
" clip-path="url(#p360eaca282)" style="fill: #ff7f0e"/>
   </g>
   <g id="patch_7">
    <path d="M 175.06924 301.11794 
L 228.445139 301.11794 
L 228.445139 168.582016 
L 175.06924 168.582016 
z
" clip-path="url(#p360eaca282)" style="fill: #2ca02c"/>
   </g>
   <g id="patch_8">
    <path d="M 471.60201 301.11794 
L 524.977908 301.11794 
L 524.977908 168.582016 
L 471.60201 168.582016 
z
" clip-path="url(#p360eaca282)" style="fill: #2ca02c"/>
   </g>
   <g id="patch_9">
    <path d="M 228.445139 301.11794 
L 281.821037 301.11794 
L 281.821037 137.996803 
L 228.445139 137.996803 
z
" clip-path="url(#p360eaca282)" style="fill: #d62728"/>
   </g>
   <g id="patch_10">
    <path d="M 524.977908 301.11794 
L 578.353807 301.11794 
L 578.353807 137.996803 
L 524.977908 137.996803 
z
" clip-path="url(#p360eaca282)" style="fill: #d62728"/>
   </g>
   <g id="matplotlib.axis_1">
    <g id="xtick_1">
     <g id="line2d_1">
      <defs>
       <path id="md9d4183160" d="M 0 0 
L 0 3.5 
" style="stroke: #000000; stroke-width: 0.8"/>
      </defs>
      <g>
       <use xlink:href="#md9d4183160" x="175.06924" y="301.11794" style="stroke: #000000; stroke-width: 0.8"/>
      </g>
     </g>
     <g id="text_1">
      <!-- linear -->
      <g transform="translate(149.093588 323.910847) rotate(-18) scale(0.1 -0.1)">
       <defs>
        <path id="MicrosoftYaHei-6c" d="M 544 0 
L 544 5116 
L 1156 5116 
L 1156 0 
L 544 0 
z
" transform="scale(0.015625)"/>
        <path id="MicrosoftYaHei-69" d="M 472 4675 
Q 472 4838 583 4948 
Q 694 5059 856 5059 
Q 1022 5059 1136 4950 
Q 1250 4841 1250 4675 
Q 1250 4513 1136 4405 
Q 1022 4297 856 4297 
Q 691 4297 581 4405 
Q 472 4513 472 4675 
z
M 544 0 
L 544 3456 
L 1156 3456 
L 1156 0 
L 544 0 
z
" transform="scale(0.015625)"/>
        <path id="MicrosoftYaHei-6e" d="M 3469 0 
L 2859 0 
L 2859 1966 
Q 2859 3031 2081 3031 
Q 1678 3031 1418 2731 
Q 1159 2431 1159 1972 
L 1159 0 
L 547 0 
L 547 3456 
L 1159 3456 
L 1159 2884 
L 1172 2884 
Q 1563 3538 2306 3538 
Q 2875 3538 3172 3173 
Q 3469 2809 3469 2113 
L 3469 0 
z
" transform="scale(0.015625)"/>
        <path id="MicrosoftYaHei-65" d="M 3363 1572 
L 944 1572 
Q 959 1019 1246 717 
Q 1534 416 2050 416 
Q 2631 416 3116 788 
L 3116 241 
Q 2659 -81 1906 -81 
Q 1156 -81 736 394 
Q 316 869 316 1713 
Q 316 2506 777 3022 
Q 1238 3538 1922 3538 
Q 2600 3538 2981 3102 
Q 3363 2666 3363 1881 
L 3363 1572 
z
M 2750 2063 
Q 2747 2531 2528 2787 
Q 2309 3044 1913 3044 
Q 1547 3044 1280 2772 
Q 1013 2500 944 2063 
L 2750 2063 
z
" transform="scale(0.015625)"/>
        <path id="MicrosoftYaHei-61" d="M 628 3216 
Q 1144 3538 1819 3538 
Q 3069 3538 3069 2225 
L 3069 0 
L 2463 0 
L 2463 534 
L 2447 534 
Q 2088 -81 1388 -81 
Q 884 -81 587 191 
Q 291 463 291 925 
Q 291 1894 1438 2053 
L 2463 2197 
Q 2463 3044 1763 3044 
Q 1141 3044 628 2625 
L 628 3216 
z
M 1653 1625 
Q 1228 1569 1067 1412 
Q 906 1256 906 975 
Q 906 728 1081 572 
Q 1256 416 1544 416 
Q 1944 416 2203 697 
Q 2463 978 2463 1403 
L 2463 1734 
L 1653 1625 
z
" transform="scale(0.015625)"/>
        <path id="MicrosoftYaHei-72" d="M 2400 2850 
Q 2247 2959 1978 2959 
Q 1622 2959 1390 2626 
Q 1159 2294 1159 1750 
L 1159 0 
L 547 0 
L 547 3456 
L 1159 3456 
L 1159 2753 
L 1172 2753 
Q 1434 3516 2078 3516 
Q 2288 3516 2400 3469 
L 2400 2850 
z
" transform="scale(0.015625)"/>
       </defs>
       <use xlink:href="#MicrosoftYaHei-6c"/>
       <use xlink:href="#MicrosoftYaHei-69" transform="translate(26.611328 0)"/>
       <use xlink:href="#MicrosoftYaHei-6e" transform="translate(53.222656 0)"/>
       <use xlink:href="#MicrosoftYaHei-65" transform="translate(114.84375 0)"/>
       <use xlink:href="#MicrosoftYaHei-61" transform="translate(171.582031 0)"/>
       <use xlink:href="#MicrosoftYaHei-72" transform="translate(226.855469 0)"/>
      </g>
     </g>
    </g>
    <g id="xtick_2">
     <g id="line2d_2">
      <g>
       <use xlink:href="#md9d4183160" x="471.60201" y="301.11794" style="stroke: #000000; stroke-width: 0.8"/>
      </g>
     </g>
     <g id="text_2">
      <!-- rbf -->
      <g transform="translate(457.877154 319.930322) rotate(-18) scale(0.1 -0.1)">
       <defs>
        <path id="MicrosoftYaHei-62" d="M 1159 488 
L 1159 0 
L 547 0 
L 547 5116 
L 1159 5116 
L 1159 2859 
L 1172 2859 
Q 1578 3538 2359 3538 
Q 3009 3538 3392 3080 
Q 3775 2622 3775 1828 
Q 3775 953 3345 436 
Q 2916 -81 2200 -81 
Q 1525 -81 1172 488 
L 1159 488 
z
M 1156 1422 
Q 1156 1003 1428 714 
Q 1700 425 2109 425 
Q 2597 425 2872 800 
Q 3147 1175 3147 1838 
Q 3147 2384 2890 2707 
Q 2634 3031 2191 3031 
Q 1741 3031 1448 2709 
Q 1156 2388 1156 1891 
L 1156 1422 
z
" transform="scale(0.015625)"/>
        <path id="MicrosoftYaHei-66" d="M 2319 4594 
Q 2147 4684 1947 4684 
Q 1372 4684 1372 3972 
L 1372 3456 
L 2181 3456 
L 2181 2950 
L 1372 2950 
L 1372 0 
L 766 0 
L 766 2950 
L 175 2950 
L 175 3456 
L 766 3456 
L 766 4000 
Q 766 4556 1086 4873 
Q 1406 5191 1900 5191 
Q 2163 5191 2319 5131 
L 2319 4594 
z
" transform="scale(0.015625)"/>
       </defs>
       <use xlink:href="#MicrosoftYaHei-72"/>
       <use xlink:href="#MicrosoftYaHei-62" transform="translate(38.183594 0)"/>
       <use xlink:href="#MicrosoftYaHei-66" transform="translate(101.550781 0)"/>
      </g>
     </g>
    </g>
   </g>
   <g id="matplotlib.axis_2">
    <g id="ytick_1">
     <g id="line2d_3">
      <path d="M 42.815625 301.11794 
L 603.855625 301.11794 
" clip-path="url(#p360eaca282)" style="fill: none; stroke-dasharray: 2.96,1.28; stroke-dashoffset: 0; stroke: #b0b0b0; stroke-opacity: 0.35; stroke-width: 0.8"/>
     </g>
     <g id="line2d_4">
      <defs>
       <path id="mf3e80edf1a" d="M 0 0 
L -3.5 0 
" style="stroke: #000000; stroke-width: 0.8"/>
      </defs>
      <g>
       <use xlink:href="#mf3e80edf1a" x="42.815625" y="301.11794" style="stroke: #000000; stroke-width: 0.8"/>
      </g>
     </g>
     <g id="text_3">
      <!-- 0.0 -->
      <g transform="translate(21.679688 305.114815) scale(0.1 -0.1)">
       <defs>
        <path id="MicrosoftYaHei-30" d="M 284 2325 
Q 284 3606 709 4264 
Q 1134 4922 1941 4922 
Q 3478 4922 3478 2441 
Q 3478 1216 3045 567 
Q 2613 -81 1831 -81 
Q 1094 -81 689 534 
Q 284 1150 284 2325 
z
M 909 2353 
Q 909 425 1888 425 
Q 2850 425 2850 2384 
Q 2850 4413 1906 4413 
Q 909 4413 909 2353 
z
" transform="scale(0.015625)"/>
        <path id="MicrosoftYaHei-2e" d="M 372 322 
Q 372 491 487 606 
Q 603 722 775 722 
Q 950 722 1065 605 
Q 1181 488 1181 322 
Q 1181 159 1065 42 
Q 950 -75 772 -75 
Q 600 -75 486 42 
Q 372 159 372 322 
z
" transform="scale(0.015625)"/>
       </defs>
       <use xlink:href="#MicrosoftYaHei-30"/>
       <use xlink:href="#MicrosoftYaHei-2e" transform="translate(58.642578 0)"/>
       <use xlink:href="#MicrosoftYaHei-30" transform="translate(82.714844 0)"/>
      </g>
     </g>
    </g>
    <g id="ytick_2">
     <g id="line2d_5">
      <path d="M 42.815625 248.10357 
L 603.855625 248.10357 
" clip-path="url(#p360eaca282)" style="fill: none; stroke-dasharray: 2.96,1.28; stroke-dashoffset: 0; stroke: #b0b0b0; stroke-opacity: 0.35; stroke-width: 0.8"/>
     </g>
     <g id="line2d_6">
      <g>
       <use xlink:href="#mf3e80edf1a" x="42.815625" y="248.10357" style="stroke: #000000; stroke-width: 0.8"/>
      </g>
     </g>
     <g id="text_4">
      <!-- 0.2 -->
      <g transform="translate(21.679688 252.100445) scale(0.1 -0.1)">
       <defs>
        <path id="MicrosoftYaHei-32" d="M 2666 3572 
Q 2666 3963 2419 4186 
Q 2172 4409 1747 4409 
Q 1447 4409 1140 4256 
Q 834 4103 569 3819 
L 569 4413 
Q 806 4659 1107 4790 
Q 1409 4922 1816 4922 
Q 2472 4922 2872 4570 
Q 3272 4219 3272 3619 
Q 3272 3084 3026 2693 
Q 2781 2303 2188 1894 
Q 1581 1475 1376 1294 
Q 1172 1113 1090 947 
Q 1009 781 1009 544 
L 3416 544 
L 3416 0 
L 372 0 
L 372 241 
Q 372 659 486 951 
Q 600 1244 862 1520 
Q 1125 1797 1681 2184 
Q 2250 2584 2458 2886 
Q 2666 3188 2666 3572 
z
" transform="scale(0.015625)"/>
       </defs>
       <use xlink:href="#MicrosoftYaHei-30"/>
       <use xlink:href="#MicrosoftYaHei-2e" transform="translate(58.642578 0)"/>
       <use xlink:href="#MicrosoftYaHei-32" transform="translate(82.714844 0)"/>
      </g>
     </g>
    </g>
    <g id="ytick_3">
     <g id="line2d_7">
      <path d="M 42.815625 195.089201 
L 603.855625 195.089201 
" clip-path="url(#p360eaca282)" style="fill: none; stroke-dasharray: 2.96,1.28; stroke-dashoffset: 0; stroke: #b0b0b0; stroke-opacity: 0.35; stroke-width: 0.8"/>
     </g>
     <g id="line2d_8">
      <g>
       <use xlink:href="#mf3e80edf1a" x="42.815625" y="195.089201" style="stroke: #000000; stroke-width: 0.8"/>
      </g>
     </g>
     <g id="text_5">
      <!-- 0.4 -->
      <g transform="translate(21.679688 199.086076) scale(0.1 -0.1)">
       <defs>
        <path id="MicrosoftYaHei-34" d="M 2906 4841 
L 2906 1644 
L 3631 1644 
L 3631 1138 
L 2906 1138 
L 2906 0 
L 2313 0 
L 2313 1138 
L 53 1138 
L 53 1616 
Q 656 2294 1265 3178 
Q 1875 4063 2272 4841 
L 2906 4841 
z
M 741 1644 
L 2313 1644 
L 2313 3950 
Q 1988 3366 1616 2817 
Q 1244 2269 741 1644 
z
" transform="scale(0.015625)"/>
       </defs>
       <use xlink:href="#MicrosoftYaHei-30"/>
       <use xlink:href="#MicrosoftYaHei-2e" transform="translate(58.642578 0)"/>
       <use xlink:href="#MicrosoftYaHei-34" transform="translate(82.714844 0)"/>
      </g>
     </g>
    </g>
    <g id="ytick_4">
     <g id="line2d_9">
      <path d="M 42.815625 142.074831 
L 603.855625 142.074831 
" clip-path="url(#p360eaca282)" style="fill: none; stroke-dasharray: 2.96,1.28; stroke-dashoffset: 0; stroke: #b0b0b0; stroke-opacity: 0.35; stroke-width: 0.8"/>
     </g>
     <g id="line2d_10">
      <g>
       <use xlink:href="#mf3e80edf1a" x="42.815625" y="142.074831" style="stroke: #000000; stroke-width: 0.8"/>
      </g>
     </g>
     <g id="text_6">
      <!-- 0.6 -->
      <g transform="translate(21.679688 146.071706) scale(0.1 -0.1)">
       <defs>
        <path id="MicrosoftYaHei-36" d="M 3181 4219 
Q 2803 4413 2391 4413 
Q 1763 4413 1381 3866 
Q 1000 3319 994 2372 
L 1009 2372 
Q 1353 3038 2106 3038 
Q 2734 3038 3109 2628 
Q 3484 2219 3484 1541 
Q 3484 831 3051 375 
Q 2619 -81 1947 -81 
Q 1209 -81 789 495 
Q 369 1072 369 2131 
Q 369 3413 920 4167 
Q 1472 4922 2372 4922 
Q 2888 4922 3181 4781 
L 3181 4219 
z
M 1031 1584 
Q 1031 1106 1286 765 
Q 1541 425 1963 425 
Q 2363 425 2613 719 
Q 2863 1013 2863 1475 
Q 2863 1975 2627 2253 
Q 2391 2531 1956 2531 
Q 1544 2531 1287 2250 
Q 1031 1969 1031 1584 
z
" transform="scale(0.015625)"/>
       </defs>
       <use xlink:href="#MicrosoftYaHei-30"/>
       <use xlink:href="#MicrosoftYaHei-2e" transform="translate(58.642578 0)"/>
       <use xlink:href="#MicrosoftYaHei-36" transform="translate(82.714844 0)"/>
      </g>
     </g>
    </g>
    <g id="ytick_5">
     <g id="line2d_11">
      <path d="M 42.815625 89.060462 
L 603.855625 89.060462 
" clip-path="url(#p360eaca282)" style="fill: none; stroke-dasharray: 2.96,1.28; stroke-dashoffset: 0; stroke: #b0b0b0; stroke-opacity: 0.35; stroke-width: 0.8"/>
     </g>
     <g id="line2d_12">
      <g>
       <use xlink:href="#mf3e80edf1a" x="42.815625" y="89.060462" style="stroke: #000000; stroke-width: 0.8"/>
      </g>
     </g>
     <g id="text_7">
      <!-- 0.8 -->
      <g transform="translate(21.679688 93.057337) scale(0.1 -0.1)">
       <defs>
        <path id="MicrosoftYaHei-38" d="M 306 1350 
Q 306 1769 556 2122 
Q 806 2475 1200 2625 
Q 884 2803 700 3081 
Q 516 3359 516 3684 
Q 516 4028 692 4312 
Q 869 4597 1183 4759 
Q 1497 4922 1875 4922 
Q 2256 4922 2572 4761 
Q 2888 4600 3063 4315 
Q 3238 4031 3238 3684 
Q 3238 3366 3058 3086 
Q 2878 2806 2559 2625 
Q 2953 2472 3200 2119 
Q 3447 1766 3447 1350 
Q 3447 938 3250 611 
Q 3053 284 2690 103 
Q 2328 -78 1875 -78 
Q 1425 -78 1065 103 
Q 706 284 506 612 
Q 306 941 306 1350 
z
M 906 1378 
Q 906 947 1172 687 
Q 1438 428 1878 428 
Q 2309 428 2582 692 
Q 2856 956 2856 1378 
Q 2856 1778 2579 2051 
Q 2303 2325 1878 2325 
Q 1456 2325 1181 2058 
Q 906 1791 906 1378 
z
M 1081 3634 
Q 1081 3309 1312 3076 
Q 1544 2844 1878 2844 
Q 2206 2844 2445 3078 
Q 2684 3313 2684 3634 
Q 2684 3963 2454 4191 
Q 2225 4419 1878 4419 
Q 1534 4419 1307 4195 
Q 1081 3972 1081 3634 
z
" transform="scale(0.015625)"/>
       </defs>
       <use xlink:href="#MicrosoftYaHei-30"/>
       <use xlink:href="#MicrosoftYaHei-2e" transform="translate(58.642578 0)"/>
       <use xlink:href="#MicrosoftYaHei-38" transform="translate(82.714844 0)"/>
      </g>
     </g>
    </g>
    <g id="ytick_6">
     <g id="line2d_13">
      <path d="M 42.815625 36.046092 
L 603.855625 36.046092 
" clip-path="url(#p360eaca282)" style="fill: none; stroke-dasharray: 2.96,1.28; stroke-dashoffset: 0; stroke: #b0b0b0; stroke-opacity: 0.35; stroke-width: 0.8"/>
     </g>
     <g id="line2d_14">
      <g>
       <use xlink:href="#mf3e80edf1a" x="42.815625" y="36.046092" style="stroke: #000000; stroke-width: 0.8"/>
      </g>
     </g>
     <g id="text_8">
      <!-- 1.0 -->
      <g transform="translate(21.679688 40.042967) scale(0.1 -0.1)">
       <defs>
        <path id="MicrosoftYaHei-31" d="M 1781 0 
L 1781 4141 
Q 1638 3997 1295 3819 
Q 953 3641 663 3569 
L 663 4169 
Q 1047 4275 1484 4508 
Q 1922 4741 2156 4947 
L 2388 4947 
L 2388 0 
L 1781 0 
z
" transform="scale(0.015625)"/>
       </defs>
       <use xlink:href="#MicrosoftYaHei-31"/>
       <use xlink:href="#MicrosoftYaHei-2e" transform="translate(58.642578 0)"/>
       <use xlink:href="#MicrosoftYaHei-30" transform="translate(82.714844 0)"/>
      </g>
     </g>
    </g>
    <g id="text_9">
     <!-- Score -->
     <g transform="translate(15.19375 175.204439) rotate(-90) scale(0.1 -0.1)">
      <defs>
       <path id="MicrosoftYaHei-53" d="M 400 909 
Q 622 716 994 591 
Q 1366 466 1700 466 
Q 2719 466 2719 1191 
Q 2719 1394 2609 1556 
Q 2500 1719 2309 1844 
Q 2119 1969 1594 2228 
Q 866 2591 634 2902 
Q 403 3213 403 3613 
Q 403 4216 887 4569 
Q 1372 4922 2109 4922 
Q 2831 4922 3169 4747 
L 3169 4066 
Q 2731 4369 2063 4369 
Q 1619 4369 1339 4183 
Q 1059 3997 1059 3666 
Q 1059 3372 1253 3187 
Q 1447 3003 2094 2684 
Q 2806 2344 3090 2003 
Q 3375 1663 3375 1238 
Q 3375 600 2912 259 
Q 2450 -81 1628 -81 
Q 1341 -81 958 -1 
Q 575 78 400 197 
L 400 909 
z
" transform="scale(0.015625)"/>
       <path id="MicrosoftYaHei-63" d="M 2934 156 
Q 2538 -81 1978 -81 
Q 1228 -81 772 400 
Q 316 881 316 1647 
Q 316 2497 808 3017 
Q 1300 3538 2125 3538 
Q 2600 3538 2938 3369 
L 2938 2763 
Q 2572 3031 2125 3031 
Q 1600 3031 1270 2667 
Q 941 2303 941 1697 
Q 941 1100 1252 762 
Q 1563 425 2091 425 
Q 2538 425 2934 719 
L 2934 156 
z
" transform="scale(0.015625)"/>
       <path id="MicrosoftYaHei-6f" d="M 316 1691 
Q 316 2547 794 3042 
Q 1272 3538 2091 3538 
Q 2869 3538 3311 3061 
Q 3753 2584 3753 1744 
Q 3753 925 3281 422 
Q 2809 -81 2016 -81 
Q 1241 -81 778 406 
Q 316 894 316 1691 
z
M 941 1709 
Q 941 1113 1242 769 
Q 1544 425 2053 425 
Q 2578 425 2853 761 
Q 3128 1097 3128 1725 
Q 3128 2356 2853 2693 
Q 2578 3031 2053 3031 
Q 1538 3031 1239 2678 
Q 941 2325 941 1709 
z
" transform="scale(0.015625)"/>
      </defs>
      <use xlink:href="#MicrosoftYaHei-53"/>
      <use xlink:href="#MicrosoftYaHei-63" transform="translate(57.714844 0)"/>
      <use xlink:href="#MicrosoftYaHei-6f" transform="translate(107.861328 0)"/>
      <use xlink:href="#MicrosoftYaHei-72" transform="translate(171.435547 0)"/>
      <use xlink:href="#MicrosoftYaHei-65" transform="translate(208.244141 0)"/>
     </g>
    </g>
   </g>
   <g id="patch_11">
    <path d="M 42.815625 301.11794 
L 42.815625 22.7925 
" style="fill: none; stroke: #000000; stroke-width: 0.8; stroke-linejoin: miter; stroke-linecap: square"/>
   </g>
   <g id="patch_12">
    <path d="M 603.855625 301.11794 
L 603.855625 22.7925 
" style="fill: none; stroke: #000000; stroke-width: 0.8; stroke-linejoin: miter; stroke-linecap: square"/>
   </g>
   <g id="patch_13">
    <path d="M 42.815625 301.11794 
L 603.855625 301.11794 
" style="fill: none; stroke: #000000; stroke-width: 0.8; stroke-linejoin: miter; stroke-linecap: square"/>
   </g>
   <g id="patch_14">
    <path d="M 42.815625 22.7925 
L 603.855625 22.7925 
" style="fill: none; stroke: #000000; stroke-width: 0.8; stroke-linejoin: miter; stroke-linecap: square"/>
   </g>
   <g id="text_10">
    <!-- 6.2 SVM Metrics on Watermelon 3.0a -->
    <g transform="translate(216.926562 16.7925) scale(0.12 -0.12)">
     <defs>
      <path id="MicrosoftYaHei-20" transform="scale(0.015625)"/>
      <path id="MicrosoftYaHei-56" d="M 4272 4841 
L 2494 0 
L 1800 0 
L 56 4841 
L 750 4841 
L 2053 1056 
Q 2119 869 2150 622 
L 2166 622 
Q 2191 838 2275 1063 
L 3603 4841 
L 4272 4841 
z
" transform="scale(0.015625)"/>
      <path id="MicrosoftYaHei-4d" d="M 5003 0 
L 5003 3206 
Q 5003 3603 5050 4159 
L 5034 4159 
Q 4953 3809 4891 3672 
L 3294 0 
L 2947 0 
L 1353 3644 
Q 1297 3769 1209 4159 
L 1191 4159 
Q 1222 3822 1222 3178 
L 1222 0 
L 625 0 
L 625 4841 
L 1472 4841 
L 2900 1522 
Q 3063 1141 3116 928 
L 3138 928 
Q 3300 1375 3366 1534 
L 4819 4841 
L 5625 4841 
L 5625 0 
L 5003 0 
z
" transform="scale(0.015625)"/>
      <path id="MicrosoftYaHei-74" d="M 2206 34 
Q 2006 -75 1666 -75 
Q 738 -75 738 953 
L 738 2950 
L 144 2950 
L 144 3456 
L 738 3456 
L 738 4288 
L 1347 4481 
L 1347 3456 
L 2206 3456 
L 2206 2950 
L 1347 2950 
L 1347 1063 
Q 1347 722 1462 575 
Q 1578 428 1847 428 
Q 2053 428 2206 544 
L 2206 34 
z
" transform="scale(0.015625)"/>
      <path id="MicrosoftYaHei-73" d="M 353 747 
Q 816 413 1350 413 
Q 2066 413 2066 881 
Q 2066 1081 1909 1211 
Q 1753 1341 1275 1519 
Q 700 1750 528 1976 
Q 356 2203 356 2525 
Q 356 2984 745 3261 
Q 1134 3538 1703 3538 
Q 2144 3538 2522 3384 
L 2522 2794 
Q 2134 3044 1644 3044 
Q 1350 3044 1165 2916 
Q 981 2788 981 2578 
Q 981 2372 1114 2256 
Q 1247 2141 1703 1959 
Q 2281 1744 2484 1512 
Q 2688 1281 2688 941 
Q 2688 466 2298 192 
Q 1909 -81 1291 -81 
Q 753 -81 353 122 
L 353 747 
z
" transform="scale(0.015625)"/>
      <path id="MicrosoftYaHei-57" d="M 6431 4841 
L 5075 0 
L 4347 0 
L 3372 3488 
Q 3306 3725 3294 3988 
L 3281 3988 
Q 3263 3728 3194 3494 
L 2209 0 
L 1488 0 
L 84 4841 
L 775 4841 
L 1763 1184 
Q 1828 938 1841 688 
L 1859 688 
Q 1875 875 1963 1184 
L 3009 4841 
L 3625 4841 
L 4625 1156 
Q 4675 975 4706 694 
L 4719 694 
Q 4734 897 4809 1169 
L 5759 4841 
L 6431 4841 
z
" transform="scale(0.015625)"/>
      <path id="MicrosoftYaHei-6d" d="M 5522 0 
L 4909 0 
L 4909 1984 
Q 4909 2547 4734 2789 
Q 4559 3031 4159 3031 
Q 3822 3031 3581 2715 
Q 3341 2400 3341 1969 
L 3341 0 
L 2728 0 
L 2728 2047 
Q 2728 3031 1969 3031 
Q 1619 3031 1389 2731 
Q 1159 2431 1159 1966 
L 1159 0 
L 547 0 
L 547 3456 
L 1159 3456 
L 1159 2909 
L 1172 2909 
Q 1541 3538 2250 3538 
Q 2597 3538 2862 3347 
Q 3128 3156 3231 2831 
Q 3616 3538 4381 3538 
Q 5522 3538 5522 2131 
L 5522 0 
z
" transform="scale(0.015625)"/>
      <path id="MicrosoftYaHei-33" d="M 447 809 
Q 944 425 1569 425 
Q 2069 425 2361 670 
Q 2653 916 2653 1328 
Q 2653 2247 1338 2247 
L 934 2247 
L 934 2753 
L 1319 2753 
Q 2484 2753 2484 3616 
Q 2484 4413 1594 4413 
Q 1084 4413 634 4069 
L 634 4647 
Q 1109 4922 1744 4922 
Q 2363 4922 2738 4598 
Q 3113 4275 3113 3759 
Q 3113 2809 2144 2538 
L 2144 2525 
Q 2669 2469 2973 2155 
Q 3278 1841 3278 1372 
Q 3278 719 2808 319 
Q 2338 -81 1556 -81 
Q 869 -81 447 175 
L 447 809 
z
" transform="scale(0.015625)"/>
     </defs>
     <use xlink:href="#MicrosoftYaHei-36"/>
     <use xlink:href="#MicrosoftYaHei-2e" transform="translate(58.642578 0)"/>
     <use xlink:href="#MicrosoftYaHei-32" transform="translate(82.714844 0)"/>
     <use xlink:href="#MicrosoftYaHei-20" transform="translate(141.357422 0)"/>
     <use xlink:href="#MicrosoftYaHei-53" transform="translate(170.947266 0)"/>
     <use xlink:href="#MicrosoftYaHei-56" transform="translate(228.662109 0)"/>
     <use xlink:href="#MicrosoftYaHei-4d" transform="translate(296.289062 0)"/>
     <use xlink:href="#MicrosoftYaHei-20" transform="translate(393.994141 0)"/>
     <use xlink:href="#MicrosoftYaHei-4d" transform="translate(423.583984 0)"/>
     <use xlink:href="#MicrosoftYaHei-65" transform="translate(521.289062 0)"/>
     <use xlink:href="#MicrosoftYaHei-74" transform="translate(578.027344 0)"/>
     <use xlink:href="#MicrosoftYaHei-72" transform="translate(615.283203 0)"/>
     <use xlink:href="#MicrosoftYaHei-69" transform="translate(653.466797 0)"/>
     <use xlink:href="#MicrosoftYaHei-63" transform="translate(680.078125 0)"/>
     <use xlink:href="#MicrosoftYaHei-73" transform="translate(730.224609 0)"/>
     <use xlink:href="#MicrosoftYaHei-20" transform="translate(776.513672 0)"/>
     <use xlink:href="#MicrosoftYaHei-6f" transform="translate(806.103516 0)"/>
     <use xlink:href="#MicrosoftYaHei-6e" transform="translate(869.677734 0)"/>
     <use xlink:href="#MicrosoftYaHei-20" transform="translate(931.298828 0)"/>
     <use xlink:href="#MicrosoftYaHei-57" transform="translate(960.888672 0)"/>
     <use xlink:href="#MicrosoftYaHei-61" transform="translate(1058.646484 0)"/>
     <use xlink:href="#MicrosoftYaHei-74" transform="translate(1113.919922 0)"/>
     <use xlink:href="#MicrosoftYaHei-65" transform="translate(1150.300781 0)"/>
     <use xlink:href="#MicrosoftYaHei-72" transform="translate(1207.039062 0)"/>
     <use xlink:href="#MicrosoftYaHei-6d" transform="translate(1244.972656 0)"/>
     <use xlink:href="#MicrosoftYaHei-65" transform="translate(1338.673828 0)"/>
     <use xlink:href="#MicrosoftYaHei-6c" transform="translate(1395.412109 0)"/>
     <use xlink:href="#MicrosoftYaHei-6f" transform="translate(1422.023438 0)"/>
     <use xlink:href="#MicrosoftYaHei-6e" transform="translate(1485.597656 0)"/>
     <use xlink:href="#MicrosoftYaHei-20" transform="translate(1547.21875 0)"/>
     <use xlink:href="#MicrosoftYaHei-33" transform="translate(1576.808594 0)"/>
     <use xlink:href="#MicrosoftYaHei-2e" transform="translate(1635.451172 0)"/>
     <use xlink:href="#MicrosoftYaHei-30" transform="translate(1659.523438 0)"/>
     <use xlink:href="#MicrosoftYaHei-61" transform="translate(1718.166016 0)"/>
    </g>
   </g>
   <g id="legend_1">
    <g id="patch_15">
     <path d="M 175.759844 358.054493 
L 470.911406 358.054493 
Q 472.911406 358.054493 472.911406 356.054493 
L 472.911406 341.516993 
Q 472.911406 339.516993 470.911406 339.516993 
L 175.759844 339.516993 
Q 173.759844 339.516993 173.759844 341.516993 
L 173.759844 356.054493 
Q 173.759844 358.054493 175.759844 358.054493 
z
" style="fill: #ffffff; opacity: 0.8; stroke: #cccccc; stroke-linejoin: miter"/>
    </g>
    <g id="patch_16">
     <path d="M 177.759844 351.510743 
L 197.759844 351.510743 
L 197.759844 344.510743 
L 177.759844 344.510743 
z
" style="fill: #1f77b4"/>
    </g>
    <g id="text_11">
     <!-- accuracy -->
     <g transform="translate(205.759844 351.510743) scale(0.1 -0.1)">
      <defs>
       <path id="MicrosoftYaHei-75" d="M 3400 0 
L 2784 0 
L 2784 544 
L 2772 544 
Q 2425 -81 1706 -81 
Q 478 -81 478 1388 
L 478 3456 
L 1084 3456 
L 1084 1478 
Q 1084 425 1891 425 
Q 2291 425 2537 720 
Q 2784 1016 2784 1466 
L 2784 3456 
L 3400 3456 
L 3400 0 
z
" transform="scale(0.015625)"/>
       <path id="MicrosoftYaHei-79" d="M 3359 3456 
L 1791 -522 
Q 1353 -1628 556 -1628 
Q 328 -1628 166 -1578 
L 166 -1041 
Q 344 -1109 509 -1109 
Q 925 -1109 1131 -622 
L 1397 6 
L 41 3456 
L 719 3456 
L 1622 859 
L 1697 575 
L 1713 575 
Q 1731 672 1788 853 
L 2731 3456 
L 3359 3456 
z
" transform="scale(0.015625)"/>
      </defs>
      <use xlink:href="#MicrosoftYaHei-61"/>
      <use xlink:href="#MicrosoftYaHei-63" transform="translate(55.273438 0)"/>
      <use xlink:href="#MicrosoftYaHei-63" transform="translate(105.419922 0)"/>
      <use xlink:href="#MicrosoftYaHei-75" transform="translate(155.566406 0)"/>
      <use xlink:href="#MicrosoftYaHei-72" transform="translate(217.1875 0)"/>
      <use xlink:href="#MicrosoftYaHei-61" transform="translate(255.371094 0)"/>
      <use xlink:href="#MicrosoftYaHei-63" transform="translate(310.644531 0)"/>
      <use xlink:href="#MicrosoftYaHei-79" transform="translate(360.791016 0)"/>
     </g>
    </g>
    <g id="patch_17">
     <path d="M 267.133281 351.510743 
L 287.133281 351.510743 
L 287.133281 344.510743 
L 267.133281 344.510743 
z
" style="fill: #ff7f0e"/>
    </g>
    <g id="text_12">
     <!-- precision -->
     <g transform="translate(295.133281 351.510743) scale(0.1 -0.1)">
      <defs>
       <path id="MicrosoftYaHei-70" d="M 1159 488 
L 1159 -1591 
L 547 -1591 
L 547 3456 
L 1159 3456 
L 1159 2859 
L 1172 2859 
Q 1578 3538 2359 3538 
Q 3022 3538 3398 3073 
Q 3775 2609 3775 1828 
Q 3775 966 3348 442 
Q 2922 -81 2200 -81 
Q 1534 -81 1172 488 
L 1159 488 
z
M 1156 1425 
Q 1156 1003 1428 714 
Q 1700 425 2109 425 
Q 2597 425 2872 800 
Q 3147 1175 3147 1838 
Q 3147 2397 2890 2714 
Q 2634 3031 2191 3031 
Q 1738 3031 1447 2709 
Q 1156 2388 1156 1884 
L 1156 1425 
z
" transform="scale(0.015625)"/>
      </defs>
      <use xlink:href="#MicrosoftYaHei-70"/>
      <use xlink:href="#MicrosoftYaHei-72" transform="translate(63.867188 0)"/>
      <use xlink:href="#MicrosoftYaHei-65" transform="translate(100.675781 0)"/>
      <use xlink:href="#MicrosoftYaHei-63" transform="translate(157.414062 0)"/>
      <use xlink:href="#MicrosoftYaHei-69" transform="translate(207.560547 0)"/>
      <use xlink:href="#MicrosoftYaHei-73" transform="translate(234.171875 0)"/>
      <use xlink:href="#MicrosoftYaHei-69" transform="translate(280.460938 0)"/>
      <use xlink:href="#MicrosoftYaHei-6f" transform="translate(307.072266 0)"/>
      <use xlink:href="#MicrosoftYaHei-6e" transform="translate(370.646484 0)"/>
     </g>
    </g>
    <g id="patch_18">
     <path d="M 358.361406 351.510743 
L 378.361406 351.510743 
L 378.361406 344.510743 
L 358.361406 344.510743 
z
" style="fill: #2ca02c"/>
    </g>
    <g id="text_13">
     <!-- recall -->
     <g transform="translate(386.361406 351.510743) scale(0.1 -0.1)">
      <use xlink:href="#MicrosoftYaHei-72"/>
      <use xlink:href="#MicrosoftYaHei-65" transform="translate(36.808594 0)"/>
      <use xlink:href="#MicrosoftYaHei-63" transform="translate(93.546875 0)"/>
      <use xlink:href="#MicrosoftYaHei-61" transform="translate(143.693359 0)"/>
      <use xlink:href="#MicrosoftYaHei-6c" transform="translate(198.966797 0)"/>
      <use xlink:href="#MicrosoftYaHei-6c" transform="translate(225.578125 0)"/>
     </g>
    </g>
    <g id="patch_19">
     <path d="M 431.580156 351.510743 
L 451.580156 351.510743 
L 451.580156 344.510743 
L 431.580156 344.510743 
z
" style="fill: #d62728"/>
    </g>
    <g id="text_14">
     <!-- f1 -->
     <g transform="translate(459.580156 351.510743) scale(0.1 -0.1)">
      <use xlink:href="#MicrosoftYaHei-66"/>
      <use xlink:href="#MicrosoftYaHei-31" transform="translate(34.667969 0)"/>
     </g>
    </g>
   </g>
  </g>
 </g>
 <defs>
  <clipPath id="p360eaca282">
   <rect x="42.815625" y="22.7925" width="561.04" height="278.32544"/>
  </clipPath>
 </defs>
</svg>
