<?xml version="1.0" encoding="utf-8" standalone="no"?>
<!DOCTYPE svg PUBLIC "-//W3C//DTD SVG 1.1//EN"
  "http://www.w3.org/Graphics/SVG/1.1/DTD/svg11.dtd">
<svg xmlns:xlink="http://www.w3.org/1999/xlink" width="514.633125pt" height="416.08pt" viewBox="0 0 514.633125 416.08" xmlns="http://www.w3.org/2000/svg" version="1.1">
 <metadata>
  <rdf:RDF xmlns:dc="http://purl.org/dc/elements/1.1/" xmlns:cc="http://creativecommons.org/ns#" xmlns:rdf="http://www.w3.org/1999/02/22-rdf-syntax-ns#">
   <cc:Work>
    <dc:type rdf:resource="http://purl.org/dc/dcmitype/StillImage"/>
    <dc:date>2026-05-21T08:46:52.485304</dc:date>
    <dc:format>image/svg+xml</dc:format>
    <dc:creator>
     <cc:Agent>
      <dc:title>Matplotlib v3.10.0, https://matplotlib.org/</dc:title>
     </cc:Agent>
    </dc:creator>
   </cc:Work>
  </rdf:RDF>
 </metadata>
 <defs>
  <style type="text/css">*{stroke-linejoin: round; stroke-linecap: butt}</style>
 </defs>
 <g id="figure_1">
  <g id="patch_1">
   <path d="M 0 416.08 
L 514.633125 416.08 
L 514.633125 0 
L 0 0 
z
" style="fill: #ffffff"/>
  </g>
  <g id="axes_1">
   <g id="patch_2">
    <path d="M 49.873125 370.22875 
L 507.433125 370.22875 
L 507.433125 37.58875 
L 49.873125 37.58875 
z
" style="fill: #ffffff"/>
   </g>
   <g id="matplotlib.axis_1">
    <g id="xtick_1">
     <g id="line2d_1">
      <path d="M 58.672356 370.22875 
L 58.672356 37.58875 
" clip-path="url(#p2784868b3c)" style="fill: none; stroke-dasharray: 3.7,1.6; stroke-dashoffset: 0; stroke: #cccccc; stroke-opacity: 0.35"/>
     </g>
     <g id="text_1">
      <!-- 0.0 -->
      <g style="fill: #262626" transform="translate(50.89759 388.521875) scale(0.11 -0.11)">
       <defs>
        <path id="MicrosoftYaHei-30" d="M 284 2325 
Q 284 3606 709 4264 
Q 1134 4922 1941 4922 
Q 3478 4922 3478 2441 
Q 3478 1216 3045 567 
Q 2613 -81 1831 -81 
Q 1094 -81 689 534 
Q 284 1150 284 2325 
z
M 909 2353 
Q 909 425 1888 425 
Q 2850 425 2850 2384 
Q 2850 4413 1906 4413 
Q 909 4413 909 2353 
z
" transform="scale(0.015625)"/>
        <path id="MicrosoftYaHei-2e" d="M 372 322 
Q 372 491 487 606 
Q 603 722 775 722 
Q 950 722 1065 605 
Q 1181 488 1181 322 
Q 1181 159 1065 42 
Q 950 -75 772 -75 
Q 600 -75 486 42 
Q 372 159 372 322 
z
" transform="scale(0.015625)"/>
       </defs>
       <use xlink:href="#MicrosoftYaHei-30"/>
       <use xlink:href="#MicrosoftYaHei-2e" transform="translate(58.642578 0)"/>
       <use xlink:href="#MicrosoftYaHei-30" transform="translate(82.714844 0)"/>
      </g>
     </g>
    </g>
    <g id="xtick_2">
     <g id="line2d_2">
      <path d="M 146.664663 370.22875 
L 146.664663 37.58875 
" clip-path="url(#p2784868b3c)" style="fill: none; stroke-dasharray: 3.7,1.6; stroke-dashoffset: 0; stroke: #cccccc; stroke-opacity: 0.35"/>
     </g>
     <g id="text_2">
      <!-- 0.2 -->
      <g style="fill: #262626" transform="translate(138.889898 388.521875) scale(0.11 -0.11)">
       <defs>
        <path id="MicrosoftYaHei-32" d="M 2666 3572 
Q 2666 3963 2419 4186 
Q 2172 4409 1747 4409 
Q 1447 4409 1140 4256 
Q 834 4103 569 3819 
L 569 4413 
Q 806 4659 1107 4790 
Q 1409 4922 1816 4922 
Q 2472 4922 2872 4570 
Q 3272 4219 3272 3619 
Q 3272 3084 3026 2693 
Q 2781 2303 2188 1894 
Q 1581 1475 1376 1294 
Q 1172 1113 1090 947 
Q 1009 781 1009 544 
L 3416 544 
L 3416 0 
L 372 0 
L 372 241 
Q 372 659 486 951 
Q 600 1244 862 1520 
Q 1125 1797 1681 2184 
Q 2250 2584 2458 2886 
Q 2666 3188 2666 3572 
z
" transform="scale(0.015625)"/>
       </defs>
       <use xlink:href="#MicrosoftYaHei-30"/>
       <use xlink:href="#MicrosoftYaHei-2e" transform="translate(58.642578 0)"/>
       <use xlink:href="#MicrosoftYaHei-32" transform="translate(82.714844 0)"/>
      </g>
     </g>
    </g>
    <g id="xtick_3">
     <g id="line2d_3">
      <path d="M 234.656971 370.22875 
L 234.656971 37.58875 
" clip-path="url(#p2784868b3c)" style="fill: none; stroke-dasharray: 3.7,1.6; stroke-dashoffset: 0; stroke: #cccccc; stroke-opacity: 0.35"/>
     </g>
     <g id="text_3">
      <!-- 0.4 -->
      <g style="fill: #262626" transform="translate(226.882206 388.521875) scale(0.11 -0.11)">
       <defs>
        <path id="MicrosoftYaHei-34" d="M 2906 4841 
L 2906 1644 
L 3631 1644 
L 3631 1138 
L 2906 1138 
L 2906 0 
L 2313 0 
L 2313 1138 
L 53 1138 
L 53 1616 
Q 656 2294 1265 3178 
Q 1875 4063 2272 4841 
L 2906 4841 
z
M 741 1644 
L 2313 1644 
L 2313 3950 
Q 1988 3366 1616 2817 
Q 1244 2269 741 1644 
z
" transform="scale(0.015625)"/>
       </defs>
       <use xlink:href="#MicrosoftYaHei-30"/>
       <use xlink:href="#MicrosoftYaHei-2e" transform="translate(58.642578 0)"/>
       <use xlink:href="#MicrosoftYaHei-34" transform="translate(82.714844 0)"/>
      </g>
     </g>
    </g>
    <g id="xtick_4">
     <g id="line2d_4">
      <path d="M 322.649279 370.22875 
L 322.649279 37.58875 
" clip-path="url(#p2784868b3c)" style="fill: none; stroke-dasharray: 3.7,1.6; stroke-dashoffset: 0; stroke: #cccccc; stroke-opacity: 0.35"/>
     </g>
     <g id="text_4">
      <!-- 0.6 -->
      <g style="fill: #262626" transform="translate(314.874513 388.521875) scale(0.11 -0.11)">
       <defs>
        <path id="MicrosoftYaHei-36" d="M 3181 4219 
Q 2803 4413 2391 4413 
Q 1763 4413 1381 3866 
Q 1000 3319 994 2372 
L 1009 2372 
Q 1353 3038 2106 3038 
Q 2734 3038 3109 2628 
Q 3484 2219 3484 1541 
Q 3484 831 3051 375 
Q 2619 -81 1947 -81 
Q 1209 -81 789 495 
Q 369 1072 369 2131 
Q 369 3413 920 4167 
Q 1472 4922 2372 4922 
Q 2888 4922 3181 4781 
L 3181 4219 
z
M 1031 1584 
Q 1031 1106 1286 765 
Q 1541 425 1963 425 
Q 2363 425 2613 719 
Q 2863 1013 2863 1475 
Q 2863 1975 2627 2253 
Q 2391 2531 1956 2531 
Q 1544 2531 1287 2250 
Q 1031 1969 1031 1584 
z
" transform="scale(0.015625)"/>
       </defs>
       <use xlink:href="#MicrosoftYaHei-30"/>
       <use xlink:href="#MicrosoftYaHei-2e" transform="translate(58.642578 0)"/>
       <use xlink:href="#MicrosoftYaHei-36" transform="translate(82.714844 0)"/>
      </g>
     </g>
    </g>
    <g id="xtick_5">
     <g id="line2d_5">
      <path d="M 410.641587 370.22875 
L 410.641587 37.58875 
" clip-path="url(#p2784868b3c)" style="fill: none; stroke-dasharray: 3.7,1.6; stroke-dashoffset: 0; stroke: #cccccc; stroke-opacity: 0.35"/>
     </g>
     <g id="text_5">
      <!-- 0.8 -->
      <g style="fill: #262626" transform="translate(402.866821 388.521875) scale(0.11 -0.11)">
       <defs>
        <path id="MicrosoftYaHei-38" d="M 306 1350 
Q 306 1769 556 2122 
Q 806 2475 1200 2625 
Q 884 2803 700 3081 
Q 516 3359 516 3684 
Q 516 4028 692 4312 
Q 869 4597 1183 4759 
Q 1497 4922 1875 4922 
Q 2256 4922 2572 4761 
Q 2888 4600 3063 4315 
Q 3238 4031 3238 3684 
Q 3238 3366 3058 3086 
Q 2878 2806 2559 2625 
Q 2953 2472 3200 2119 
Q 3447 1766 3447 1350 
Q 3447 938 3250 611 
Q 3053 284 2690 103 
Q 2328 -78 1875 -78 
Q 1425 -78 1065 103 
Q 706 284 506 612 
Q 306 941 306 1350 
z
M 906 1378 
Q 906 947 1172 687 
Q 1438 428 1878 428 
Q 2309 428 2582 692 
Q 2856 956 2856 1378 
Q 2856 1778 2579 2051 
Q 2303 2325 1878 2325 
Q 1456 2325 1181 2058 
Q 906 1791 906 1378 
z
M 1081 3634 
Q 1081 3309 1312 3076 
Q 1544 2844 1878 2844 
Q 2206 2844 2445 3078 
Q 2684 3313 2684 3634 
Q 2684 3963 2454 4191 
Q 2225 4419 1878 4419 
Q 1534 4419 1307 4195 
Q 1081 3972 1081 3634 
z
" transform="scale(0.015625)"/>
       </defs>
       <use xlink:href="#MicrosoftYaHei-30"/>
       <use xlink:href="#MicrosoftYaHei-2e" transform="translate(58.642578 0)"/>
       <use xlink:href="#MicrosoftYaHei-38" transform="translate(82.714844 0)"/>
      </g>
     </g>
    </g>
    <g id="xtick_6">
     <g id="line2d_6">
      <path d="M 498.633894 370.22875 
L 498.633894 37.58875 
" clip-path="url(#p2784868b3c)" style="fill: none; stroke-dasharray: 3.7,1.6; stroke-dashoffset: 0; stroke: #cccccc; stroke-opacity: 0.35"/>
     </g>
     <g id="text_6">
      <!-- 1.0 -->
      <g style="fill: #262626" transform="translate(490.859129 388.521875) scale(0.11 -0.11)">
       <defs>
        <path id="MicrosoftYaHei-31" d="M 1781 0 
L 1781 4141 
Q 1638 3997 1295 3819 
Q 953 3641 663 3569 
L 663 4169 
Q 1047 4275 1484 4508 
Q 1922 4741 2156 4947 
L 2388 4947 
L 2388 0 
L 1781 0 
z
" transform="scale(0.015625)"/>
       </defs>
       <use xlink:href="#MicrosoftYaHei-31"/>
       <use xlink:href="#MicrosoftYaHei-2e" transform="translate(58.642578 0)"/>
       <use xlink:href="#MicrosoftYaHei-30" transform="translate(82.714844 0)"/>
      </g>
     </g>
    </g>
    <g id="text_7">
     <!-- Recall -->
     <g style="fill: #262626" transform="translate(259.550234 405.648281) scale(0.13 -0.13)">
      <defs>
       <path id="MicrosoftYaHei-Bold-52" d="M 4553 0 
L 3366 0 
L 2606 1259 
Q 2372 1650 2222 1762 
Q 2072 1875 1903 1875 
L 1591 1875 
L 1591 0 
L 559 0 
L 559 4841 
L 2256 4841 
Q 3984 4841 3984 3528 
Q 3984 3034 3695 2681 
Q 3406 2328 2900 2184 
L 2900 2172 
Q 3234 2059 3641 1434 
L 4553 0 
z
M 1591 4056 
L 1591 2663 
L 2097 2663 
Q 2459 2663 2679 2873 
Q 2900 3084 2900 3400 
Q 2900 4056 2116 4056 
L 1591 4056 
z
" transform="scale(0.015625)"/>
       <path id="MicrosoftYaHei-Bold-65" d="M 3528 1444 
L 1253 1444 
Q 1306 641 2222 641 
Q 2794 641 3231 922 
L 3231 181 
Q 2759 -84 1994 -84 
Q 1169 -84 711 381 
Q 253 847 253 1678 
Q 253 2506 740 3023 
Q 1228 3541 1966 3541 
Q 2700 3541 3114 3095 
Q 3528 2650 3528 1872 
L 3528 1444 
z
M 2588 2075 
Q 2588 2850 1959 2850 
Q 1700 2850 1500 2637 
Q 1300 2425 1250 2075 
L 2588 2075 
z
" transform="scale(0.015625)"/>
       <path id="MicrosoftYaHei-Bold-63" d="M 3050 128 
Q 2688 -84 2019 -84 
Q 1228 -84 740 397 
Q 253 878 253 1644 
Q 253 2525 778 3033 
Q 1303 3541 2178 3541 
Q 2769 3541 3053 3378 
L 3053 2513 
Q 2706 2766 2297 2766 
Q 1834 2766 1554 2484 
Q 1275 2203 1275 1713 
Q 1275 1238 1540 964 
Q 1806 691 2263 691 
Q 2666 691 3050 947 
L 3050 128 
z
" transform="scale(0.015625)"/>
       <path id="MicrosoftYaHei-Bold-61" d="M 544 3247 
Q 778 3378 1170 3459 
Q 1563 3541 1841 3541 
Q 3291 3541 3291 2088 
L 3291 0 
L 2331 0 
L 2331 503 
L 2319 503 
Q 1966 -84 1284 -84 
Q 794 -84 498 195 
Q 203 475 203 956 
Q 203 1950 1388 2113 
L 2338 2241 
Q 2338 2844 1709 2844 
Q 1091 2844 544 2469 
L 544 3247 
z
M 1684 1566 
Q 1138 1494 1138 1072 
Q 1138 878 1270 759 
Q 1403 641 1628 641 
Q 1938 641 2138 859 
Q 2338 1078 2338 1403 
L 2338 1650 
L 1684 1566 
z
" transform="scale(0.015625)"/>
       <path id="MicrosoftYaHei-Bold-6c" d="M 444 0 
L 444 5116 
L 1450 5116 
L 1450 0 
L 444 0 
z
" transform="scale(0.015625)"/>
      </defs>
      <use xlink:href="#MicrosoftYaHei-Bold-52"/>
      <use xlink:href="#MicrosoftYaHei-Bold-65" transform="translate(67.074219 0)"/>
      <use xlink:href="#MicrosoftYaHei-Bold-63" transform="translate(125.277344 0)"/>
      <use xlink:href="#MicrosoftYaHei-Bold-61" transform="translate(176.9375 0)"/>
      <use xlink:href="#MicrosoftYaHei-Bold-6c" transform="translate(234.701172 0)"/>
      <use xlink:href="#MicrosoftYaHei-Bold-6c" transform="translate(264.291016 0)"/>
     </g>
    </g>
   </g>
   <g id="matplotlib.axis_2">
    <g id="ytick_1">
     <g id="line2d_7">
      <path d="M 49.873125 370.22875 
L 507.433125 370.22875 
" clip-path="url(#p2784868b3c)" style="fill: none; stroke-dasharray: 3.7,1.6; stroke-dashoffset: 0; stroke: #cccccc; stroke-opacity: 0.35"/>
     </g>
     <g id="text_8">
      <!-- 0.0 -->
      <g style="fill: #262626" transform="translate(24.823594 374.625313) scale(0.11 -0.11)">
       <use xlink:href="#MicrosoftYaHei-30"/>
       <use xlink:href="#MicrosoftYaHei-2e" transform="translate(58.642578 0)"/>
       <use xlink:href="#MicrosoftYaHei-30" transform="translate(82.714844 0)"/>
      </g>
     </g>
    </g>
    <g id="ytick_2">
     <g id="line2d_8">
      <path d="M 49.873125 306.86875 
L 507.433125 306.86875 
" clip-path="url(#p2784868b3c)" style="fill: none; stroke-dasharray: 3.7,1.6; stroke-dashoffset: 0; stroke: #cccccc; stroke-opacity: 0.35"/>
     </g>
     <g id="text_9">
      <!-- 0.2 -->
      <g style="fill: #262626" transform="translate(24.823594 311.265312) scale(0.11 -0.11)">
       <use xlink:href="#MicrosoftYaHei-30"/>
       <use xlink:href="#MicrosoftYaHei-2e" transform="translate(58.642578 0)"/>
       <use xlink:href="#MicrosoftYaHei-32" transform="translate(82.714844 0)"/>
      </g>
     </g>
    </g>
    <g id="ytick_3">
     <g id="line2d_9">
      <path d="M 49.873125 243.50875 
L 507.433125 243.50875 
" clip-path="url(#p2784868b3c)" style="fill: none; stroke-dasharray: 3.7,1.6; stroke-dashoffset: 0; stroke: #cccccc; stroke-opacity: 0.35"/>
     </g>
     <g id="text_10">
      <!-- 0.4 -->
      <g style="fill: #262626" transform="translate(24.823594 247.905312) scale(0.11 -0.11)">
       <use xlink:href="#MicrosoftYaHei-30"/>
       <use xlink:href="#MicrosoftYaHei-2e" transform="translate(58.642578 0)"/>
       <use xlink:href="#MicrosoftYaHei-34" transform="translate(82.714844 0)"/>
      </g>
     </g>
    </g>
    <g id="ytick_4">
     <g id="line2d_10">
      <path d="M 49.873125 180.14875 
L 507.433125 180.14875 
" clip-path="url(#p2784868b3c)" style="fill: none; stroke-dasharray: 3.7,1.6; stroke-dashoffset: 0; stroke: #cccccc; stroke-opacity: 0.35"/>
     </g>
     <g id="text_11">
      <!-- 0.6 -->
      <g style="fill: #262626" transform="translate(24.823594 184.545312) scale(0.11 -0.11)">
       <use xlink:href="#MicrosoftYaHei-30"/>
       <use xlink:href="#MicrosoftYaHei-2e" transform="translate(58.642578 0)"/>
       <use xlink:href="#MicrosoftYaHei-36" transform="translate(82.714844 0)"/>
      </g>
     </g>
    </g>
    <g id="ytick_5">
     <g id="line2d_11">
      <path d="M 49.873125 116.78875 
L 507.433125 116.78875 
" clip-path="url(#p2784868b3c)" style="fill: none; stroke-dasharray: 3.7,1.6; stroke-dashoffset: 0; stroke: #cccccc; stroke-opacity: 0.35"/>
     </g>
     <g id="text_12">
      <!-- 0.8 -->
      <g style="fill: #262626" transform="translate(24.823594 121.185312) scale(0.11 -0.11)">
       <use xlink:href="#MicrosoftYaHei-30"/>
       <use xlink:href="#MicrosoftYaHei-2e" transform="translate(58.642578 0)"/>
       <use xlink:href="#MicrosoftYaHei-38" transform="translate(82.714844 0)"/>
      </g>
     </g>
    </g>
    <g id="ytick_6">
     <g id="line2d_12">
      <path d="M 49.873125 53.42875 
L 507.433125 53.42875 
" clip-path="url(#p2784868b3c)" style="fill: none; stroke-dasharray: 3.7,1.6; stroke-dashoffset: 0; stroke: #cccccc; stroke-opacity: 0.35"/>
     </g>
     <g id="text_13">
      <!-- 1.0 -->
      <g style="fill: #262626" transform="translate(24.823594 57.825312) scale(0.11 -0.11)">
       <use xlink:href="#MicrosoftYaHei-31"/>
       <use xlink:href="#MicrosoftYaHei-2e" transform="translate(58.642578 0)"/>
       <use xlink:href="#MicrosoftYaHei-30" transform="translate(82.714844 0)"/>
      </g>
     </g>
    </g>
    <g id="text_14">
     <!-- Precision -->
     <g style="fill: #262626" transform="translate(17.591875 233.583281) rotate(-90) scale(0.13 -0.13)">
      <defs>
       <path id="MicrosoftYaHei-Bold-50" d="M 1591 1688 
L 1591 0 
L 559 0 
L 559 4841 
L 2225 4841 
Q 4031 4841 4031 3309 
Q 4031 2566 3486 2117 
Q 2941 1669 2122 1688 
L 1591 1688 
z
M 1591 4041 
L 1591 2478 
L 2038 2478 
Q 2947 2478 2947 3269 
Q 2947 4041 2047 4041 
L 1591 4041 
z
" transform="scale(0.015625)"/>
       <path id="MicrosoftYaHei-Bold-72" d="M 2663 2541 
Q 2478 2647 2216 2647 
Q 1872 2647 1670 2384 
Q 1469 2122 1469 1663 
L 1469 0 
L 459 0 
L 459 3456 
L 1469 3456 
L 1469 2806 
L 1481 2806 
Q 1731 3516 2391 3516 
Q 2569 3516 2663 3475 
L 2663 2541 
z
" transform="scale(0.015625)"/>
       <path id="MicrosoftYaHei-Bold-69" d="M 369 4572 
Q 369 4803 533 4948 
Q 697 5094 953 5094 
Q 1216 5094 1378 4945 
Q 1541 4797 1541 4572 
Q 1541 4344 1375 4192 
Q 1209 4041 953 4041 
Q 700 4041 534 4194 
Q 369 4347 369 4572 
z
M 444 0 
L 444 3456 
L 1450 3456 
L 1450 0 
L 444 0 
z
" transform="scale(0.015625)"/>
       <path id="MicrosoftYaHei-Bold-73" d="M 369 928 
Q 888 613 1384 613 
Q 2009 613 2009 947 
Q 2009 1184 1494 1344 
Q 850 1544 609 1789 
Q 369 2034 369 2453 
Q 369 2963 781 3252 
Q 1194 3541 1863 3541 
Q 2338 3541 2778 3400 
L 2778 2606 
Q 2375 2844 1891 2844 
Q 1650 2844 1503 2758 
Q 1356 2672 1356 2531 
Q 1356 2294 1794 2147 
Q 2263 1991 2498 1862 
Q 2734 1734 2857 1525 
Q 2981 1316 2981 1041 
Q 2981 506 2553 211 
Q 2125 -84 1409 -84 
Q 847 -84 369 94 
L 369 928 
z
" transform="scale(0.015625)"/>
       <path id="MicrosoftYaHei-Bold-6f" d="M 253 1713 
Q 253 2566 764 3053 
Q 1275 3541 2138 3541 
Q 2972 3541 3462 3061 
Q 3953 2581 3953 1772 
Q 3953 922 3450 419 
Q 2947 -84 2088 -84 
Q 1244 -84 748 398 
Q 253 881 253 1713 
z
M 1275 1725 
Q 1275 691 2119 691 
Q 2928 691 2928 1753 
Q 2928 2766 2113 2766 
Q 1716 2766 1495 2494 
Q 1275 2222 1275 1725 
z
" transform="scale(0.015625)"/>
       <path id="MicrosoftYaHei-Bold-6e" d="M 3744 0 
L 2741 0 
L 2741 1928 
Q 2741 2766 2138 2766 
Q 1850 2766 1659 2542 
Q 1469 2319 1469 1972 
L 1469 0 
L 459 0 
L 459 3456 
L 1469 3456 
L 1469 2906 
L 1481 2906 
Q 1859 3541 2594 3541 
Q 3744 3541 3744 2116 
L 3744 0 
z
" transform="scale(0.015625)"/>
      </defs>
      <use xlink:href="#MicrosoftYaHei-Bold-50"/>
      <use xlink:href="#MicrosoftYaHei-Bold-72" transform="translate(65.722656 0)"/>
      <use xlink:href="#MicrosoftYaHei-Bold-65" transform="translate(107.605469 0)"/>
      <use xlink:href="#MicrosoftYaHei-Bold-63" transform="translate(165.808594 0)"/>
      <use xlink:href="#MicrosoftYaHei-Bold-69" transform="translate(217.46875 0)"/>
      <use xlink:href="#MicrosoftYaHei-Bold-73" transform="translate(247.058594 0)"/>
      <use xlink:href="#MicrosoftYaHei-Bold-69" transform="translate(296.423828 0)"/>
      <use xlink:href="#MicrosoftYaHei-Bold-6f" transform="translate(326.013672 0)"/>
      <use xlink:href="#MicrosoftYaHei-Bold-6e" transform="translate(391.736328 0)"/>
     </g>
    </g>
   </g>
   <g id="FillBetweenPolyCollection_1">
    <defs>
     <path id="me9e302664b" d="M 58.672356 -45.85125 
L 58.672356 -362.65125 
L 113.667548 -362.65125 
L 113.667548 -362.65125 
L 168.66274 -362.65125 
L 168.66274 -362.65125 
L 168.66274 -362.65125 
L 168.66274 -257.05125 
L 223.657933 -257.05125 
L 223.657933 -283.45125 
L 278.653125 -283.45125 
L 278.653125 -299.29125 
L 278.653125 -299.29125 
L 278.653125 -257.05125 
L 333.648317 -257.05125 
L 333.648317 -272.136964 
L 388.64351 -272.136964 
L 388.64351 -283.45125 
L 388.64351 -283.45125 
L 388.64351 -257.05125 
L 443.638702 -257.05125 
L 443.638702 -267.61125 
L 443.638702 -267.61125 
L 443.638702 -247.45125 
L 443.638702 -247.45125 
L 443.638702 -230.65125 
L 498.633894 -230.65125 
L 498.633894 -240.805096 
L 498.633894 -240.805096 
L 498.633894 -226.879821 
L 498.633894 -226.879821 
L 498.633894 -214.81125 
L 498.633894 -214.81125 
L 498.633894 -204.25125 
L 498.633894 -204.25125 
L 498.633894 -194.933603 
L 498.633894 -45.85125 
L 498.633894 -45.85125 
L 498.633894 -45.85125 
L 498.633894 -45.85125 
L 498.633894 -45.85125 
L 498.633894 -45.85125 
L 498.633894 -45.85125 
L 498.633894 -45.85125 
L 498.633894 -45.85125 
L 498.633894 -45.85125 
L 498.633894 -45.85125 
L 443.638702 -45.85125 
L 443.638702 -45.85125 
L 443.638702 -45.85125 
L 443.638702 -45.85125 
L 443.638702 -45.85125 
L 443.638702 -45.85125 
L 388.64351 -45.85125 
L 388.64351 -45.85125 
L 388.64351 -45.85125 
L 388.64351 -45.85125 
L 333.648317 -45.85125 
L 333.648317 -45.85125 
L 278.653125 -45.85125 
L 278.653125 -45.85125 
L 278.653125 -45.85125 
L 278.653125 -45.85125 
L 223.657933 -45.85125 
L 223.657933 -45.85125 
L 168.66274 -45.85125 
L 168.66274 -45.85125 
L 168.66274 -45.85125 
L 168.66274 -45.85125 
L 113.667548 -45.85125 
L 113.667548 -45.85125 
L 58.672356 -45.85125 
z
" style="stroke: #60a5fa; stroke-opacity: 0.18"/>
    </defs>
    <g clip-path="url(#p2784868b3c)">
     <use xlink:href="#me9e302664b" x="0" y="416.08" style="fill: #60a5fa; fill-opacity: 0.18; stroke: #60a5fa; stroke-opacity: 0.18"/>
    </g>
   </g>
   <g id="line2d_13">
    <path d="M 58.672356 53.42875 
L 113.667548 53.42875 
L 113.667548 53.42875 
L 168.66274 53.42875 
L 168.66274 53.42875 
L 168.66274 53.42875 
L 168.66274 159.02875 
L 223.657933 159.02875 
L 223.657933 132.62875 
L 278.653125 132.62875 
L 278.653125 116.78875 
L 278.653125 116.78875 
L 278.653125 159.02875 
L 333.648317 159.02875 
L 333.648317 143.943036 
L 388.64351 143.943036 
L 388.64351 132.62875 
L 388.64351 132.62875 
L 388.64351 159.02875 
L 443.638702 159.02875 
L 443.638702 148.46875 
L 443.638702 148.46875 
L 443.638702 168.62875 
L 443.638702 168.62875 
L 443.638702 185.42875 
L 498.633894 185.42875 
L 498.633894 175.274904 
L 498.633894 175.274904 
L 498.633894 189.200179 
L 498.633894 189.200179 
L 498.633894 201.26875 
L 498.633894 201.26875 
L 498.633894 211.82875 
L 498.633894 211.82875 
L 498.633894 221.146397 
" clip-path="url(#p2784868b3c)" style="fill: none; stroke: #2563eb; stroke-width: 2.8; stroke-linecap: round"/>
   </g>
   <g id="patch_3">
    <path d="M 49.873125 370.22875 
L 49.873125 37.58875 
" style="fill: none; stroke: #cccccc; stroke-width: 1.25; stroke-linejoin: miter; stroke-linecap: square"/>
   </g>
   <g id="patch_4">
    <path d="M 507.433125 370.22875 
L 507.433125 37.58875 
" style="fill: none; stroke: #cccccc; stroke-width: 1.25; stroke-linejoin: miter; stroke-linecap: square"/>
   </g>
   <g id="patch_5">
    <path d="M 49.873125 370.22875 
L 507.433125 370.22875 
" style="fill: none; stroke: #cccccc; stroke-width: 1.25; stroke-linejoin: miter; stroke-linecap: square"/>
   </g>
   <g id="patch_6">
    <path d="M 49.873125 37.58875 
L 507.433125 37.58875 
" style="fill: none; stroke: #cccccc; stroke-width: 1.25; stroke-linejoin: miter; stroke-linecap: square"/>
   </g>
   <g id="PathCollection_1">
    <defs>
     <path id="mb5767de32b" d="M 0 3.391165 
C 0.899347 3.391165 1.761981 3.03385 2.397916 2.397916 
C 3.03385 1.761981 3.391165 0.899347 3.391165 0 
C 3.391165 -0.899347 3.03385 -1.761981 2.397916 -2.397916 
C 1.761981 -3.03385 0.899347 -3.391165 0 -3.391165 
C -0.899347 -3.391165 -1.761981 -3.03385 -2.397916 -2.397916 
C -3.03385 -1.761981 -3.391165 -0.899347 -3.391165 0 
C -3.391165 0.899347 -3.03385 1.761981 -2.397916 2.397916 
C -1.761981 3.03385 -0.899347 3.391165 0 3.391165 
z
" style="stroke: #ffffff"/>
    </defs>
    <g clip-path="url(#p2784868b3c)">
     <use xlink:href="#mb5767de32b" x="58.672356" y="53.42875" style="fill: #1d4ed8; stroke: #ffffff"/>
     <use xlink:href="#mb5767de32b" x="113.667548" y="53.42875" style="fill: #1d4ed8; stroke: #ffffff"/>
     <use xlink:href="#mb5767de32b" x="168.66274" y="53.42875" style="fill: #1d4ed8; stroke: #ffffff"/>
     <use xlink:href="#mb5767de32b" x="168.66274" y="159.02875" style="fill: #1d4ed8; stroke: #ffffff"/>
     <use xlink:href="#mb5767de32b" x="223.657933" y="132.62875" style="fill: #1d4ed8; stroke: #ffffff"/>
     <use xlink:href="#mb5767de32b" x="278.653125" y="116.78875" style="fill: #1d4ed8; stroke: #ffffff"/>
     <use xlink:href="#mb5767de32b" x="278.653125" y="159.02875" style="fill: #1d4ed8; stroke: #ffffff"/>
     <use xlink:href="#mb5767de32b" x="333.648317" y="143.943036" style="fill: #1d4ed8; stroke: #ffffff"/>
     <use xlink:href="#mb5767de32b" x="388.64351" y="132.62875" style="fill: #1d4ed8; stroke: #ffffff"/>
     <use xlink:href="#mb5767de32b" x="388.64351" y="159.02875" style="fill: #1d4ed8; stroke: #ffffff"/>
     <use xlink:href="#mb5767de32b" x="443.638702" y="148.46875" style="fill: #1d4ed8; stroke: #ffffff"/>
     <use xlink:href="#mb5767de32b" x="443.638702" y="168.62875" style="fill: #1d4ed8; stroke: #ffffff"/>
     <use xlink:href="#mb5767de32b" x="443.638702" y="185.42875" style="fill: #1d4ed8; stroke: #ffffff"/>
     <use xlink:href="#mb5767de32b" x="498.633894" y="175.274904" style="fill: #1d4ed8; stroke: #ffffff"/>
     <use xlink:href="#mb5767de32b" x="498.633894" y="189.200179" style="fill: #1d4ed8; stroke: #ffffff"/>
     <use xlink:href="#mb5767de32b" x="498.633894" y="201.26875" style="fill: #1d4ed8; stroke: #ffffff"/>
     <use xlink:href="#mb5767de32b" x="498.633894" y="211.82875" style="fill: #1d4ed8; stroke: #ffffff"/>
     <use xlink:href="#mb5767de32b" x="498.633894" y="221.146397" style="fill: #1d4ed8; stroke: #ffffff"/>
    </g>
   </g>
   <g id="text_15">
    <g id="patch_7">
     <path d="M 407.966769 117.21005 
L 498.281925 117.21005 
Q 503.231925 117.21005 503.231925 112.26005 
L 503.231925 60.809956 
Q 503.231925 55.859956 498.281925 55.859956 
L 407.966769 55.859956 
Q 403.016769 55.859956 403.016769 60.809956 
L 403.016769 112.26005 
Q 403.016769 117.21005 407.966769 117.21005 
z
" style="fill: #ffffff; opacity: 0.92; stroke: #bfdbfe; stroke-linejoin: miter"/>
    </g>
    <!-- Accuracy=0.7059 -->
    <g style="fill: #262626" transform="translate(408.052706 69.603081) scale(0.11 -0.11)">
     <defs>
      <path id="MicrosoftYaHei-41" d="M 4428 0 
L 3738 0 
L 3244 1325 
L 1228 1325 
L 763 0 
L 72 0 
L 1916 4841 
L 2584 4841 
L 4428 0 
z
M 3050 1872 
L 2319 3884 
Q 2284 3981 2244 4222 
L 2228 4222 
Q 2194 4003 2150 3884 
L 1425 1872 
L 3050 1872 
z
" transform="scale(0.015625)"/>
      <path id="MicrosoftYaHei-63" d="M 2934 156 
Q 2538 -81 1978 -81 
Q 1228 -81 772 400 
Q 316 881 316 1647 
Q 316 2497 808 3017 
Q 1300 3538 2125 3538 
Q 2600 3538 2938 3369 
L 2938 2763 
Q 2572 3031 2125 3031 
Q 1600 3031 1270 2667 
Q 941 2303 941 1697 
Q 941 1100 1252 762 
Q 1563 425 2091 425 
Q 2538 425 2934 719 
L 2934 156 
z
" transform="scale(0.015625)"/>
      <path id="MicrosoftYaHei-75" d="M 3400 0 
L 2784 0 
L 2784 544 
L 2772 544 
Q 2425 -81 1706 -81 
Q 478 -81 478 1388 
L 478 3456 
L 1084 3456 
L 1084 1478 
Q 1084 425 1891 425 
Q 2291 425 2537 720 
Q 2784 1016 2784 1466 
L 2784 3456 
L 3400 3456 
L 3400 0 
z
" transform="scale(0.015625)"/>
      <path id="MicrosoftYaHei-72" d="M 2400 2850 
Q 2247 2959 1978 2959 
Q 1622 2959 1390 2626 
Q 1159 2294 1159 1750 
L 1159 0 
L 547 0 
L 547 3456 
L 1159 3456 
L 1159 2753 
L 1172 2753 
Q 1434 3516 2078 3516 
Q 2288 3516 2400 3469 
L 2400 2850 
z
" transform="scale(0.015625)"/>
      <path id="MicrosoftYaHei-61" d="M 628 3216 
Q 1144 3538 1819 3538 
Q 3069 3538 3069 2225 
L 3069 0 
L 2463 0 
L 2463 534 
L 2447 534 
Q 2088 -81 1388 -81 
Q 884 -81 587 191 
Q 291 463 291 925 
Q 291 1894 1438 2053 
L 2463 2197 
Q 2463 3044 1763 3044 
Q 1141 3044 628 2625 
L 628 3216 
z
M 1653 1625 
Q 1228 1569 1067 1412 
Q 906 1256 906 975 
Q 906 728 1081 572 
Q 1256 416 1544 416 
Q 1944 416 2203 697 
Q 2463 978 2463 1403 
L 2463 1734 
L 1653 1625 
z
" transform="scale(0.015625)"/>
      <path id="MicrosoftYaHei-79" d="M 3359 3456 
L 1791 -522 
Q 1353 -1628 556 -1628 
Q 328 -1628 166 -1578 
L 166 -1041 
Q 344 -1109 509 -1109 
Q 925 -1109 1131 -622 
L 1397 6 
L 41 3456 
L 719 3456 
L 1622 859 
L 1697 575 
L 1713 575 
Q 1731 672 1788 853 
L 2731 3456 
L 3359 3456 
z
" transform="scale(0.015625)"/>
      <path id="MicrosoftYaHei-3d" d="M 3972 2497 
L 788 2497 
L 788 2969 
L 3972 2969 
L 3972 2497 
z
M 3972 1053 
L 788 1053 
L 788 1525 
L 3972 1525 
L 3972 1053 
z
" transform="scale(0.015625)"/>
      <path id="MicrosoftYaHei-37" d="M 3422 4463 
Q 2659 3131 2223 1998 
Q 1788 866 1684 0 
L 1047 0 
Q 1163 853 1594 1947 
Q 2025 3041 2747 4300 
L 347 4300 
L 347 4841 
L 3422 4841 
L 3422 4463 
z
" transform="scale(0.015625)"/>
      <path id="MicrosoftYaHei-35" d="M 3294 1494 
Q 3294 784 2823 350 
Q 2353 -84 1559 -84 
Q 878 -84 544 119 
L 544 744 
Q 1034 425 1544 425 
Q 2050 425 2361 704 
Q 2672 984 2672 1447 
Q 2672 1909 2348 2167 
Q 2025 2425 1434 2425 
Q 978 2425 613 2384 
L 791 4841 
L 3053 4841 
L 3053 4303 
L 1306 4303 
L 1206 2931 
L 1647 2950 
Q 2416 2950 2855 2567 
Q 3294 2184 3294 1494 
z
" transform="scale(0.015625)"/>
      <path id="MicrosoftYaHei-39" d="M 578 656 
Q 978 425 1441 425 
Q 2091 425 2448 937 
Q 2806 1450 2806 2394 
Q 2800 2388 2794 2394 
Q 2475 1788 1722 1788 
Q 1113 1788 713 2206 
Q 313 2625 313 3294 
Q 313 4006 750 4464 
Q 1188 4922 1884 4922 
Q 2606 4922 3012 4355 
Q 3419 3788 3419 2703 
Q 3419 1363 2894 641 
Q 2369 -81 1441 -81 
Q 931 -81 578 84 
L 578 656 
z
M 931 3372 
Q 931 2884 1181 2598 
Q 1431 2313 1872 2313 
Q 2253 2313 2512 2573 
Q 2772 2834 2772 3206 
Q 2772 3728 2514 4070 
Q 2256 4413 1834 4413 
Q 1444 4413 1187 4116 
Q 931 3819 931 3372 
z
" transform="scale(0.015625)"/>
     </defs>
     <use xlink:href="#MicrosoftYaHei-41"/>
     <use xlink:href="#MicrosoftYaHei-63" transform="translate(70.361328 0)"/>
     <use xlink:href="#MicrosoftYaHei-63" transform="translate(120.507812 0)"/>
     <use xlink:href="#MicrosoftYaHei-75" transform="translate(170.654297 0)"/>
     <use xlink:href="#MicrosoftYaHei-72" transform="translate(232.275391 0)"/>
     <use xlink:href="#MicrosoftYaHei-61" transform="translate(270.458984 0)"/>
     <use xlink:href="#MicrosoftYaHei-63" transform="translate(325.732422 0)"/>
     <use xlink:href="#MicrosoftYaHei-79" transform="translate(375.878906 0)"/>
     <use xlink:href="#MicrosoftYaHei-3d" transform="translate(428.808594 0)"/>
     <use xlink:href="#MicrosoftYaHei-30" transform="translate(502.978516 0)"/>
     <use xlink:href="#MicrosoftYaHei-2e" transform="translate(561.621094 0)"/>
     <use xlink:href="#MicrosoftYaHei-37" transform="translate(585.693359 0)"/>
     <use xlink:href="#MicrosoftYaHei-30" transform="translate(644.335938 0)"/>
     <use xlink:href="#MicrosoftYaHei-35" transform="translate(702.978516 0)"/>
     <use xlink:href="#MicrosoftYaHei-39" transform="translate(761.621094 0)"/>
    </g>
    <!-- Precision=0.8000 -->
    <g style="fill: #262626" transform="translate(407.966769 82.952956) scale(0.11 -0.11)">
     <defs>
      <path id="MicrosoftYaHei-50" d="M 1250 1809 
L 1250 0 
L 625 0 
L 625 4841 
L 2000 4841 
Q 2784 4841 3217 4462 
Q 3650 4084 3650 3381 
Q 3650 2669 3144 2226 
Q 2638 1784 1878 1809 
L 1250 1809 
z
M 1250 4291 
L 1250 2359 
L 1828 2359 
Q 2400 2359 2697 2617 
Q 2994 2875 2994 3356 
Q 2994 4291 1888 4291 
L 1250 4291 
z
" transform="scale(0.015625)"/>
      <path id="MicrosoftYaHei-65" d="M 3363 1572 
L 944 1572 
Q 959 1019 1246 717 
Q 1534 416 2050 416 
Q 2631 416 3116 788 
L 3116 241 
Q 2659 -81 1906 -81 
Q 1156 -81 736 394 
Q 316 869 316 1713 
Q 316 2506 777 3022 
Q 1238 3538 1922 3538 
Q 2600 3538 2981 3102 
Q 3363 2666 3363 1881 
L 3363 1572 
z
M 2750 2063 
Q 2747 2531 2528 2787 
Q 2309 3044 1913 3044 
Q 1547 3044 1280 2772 
Q 1013 2500 944 2063 
L 2750 2063 
z
" transform="scale(0.015625)"/>
      <path id="MicrosoftYaHei-69" d="M 472 4675 
Q 472 4838 583 4948 
Q 694 5059 856 5059 
Q 1022 5059 1136 4950 
Q 1250 4841 1250 4675 
Q 1250 4513 1136 4405 
Q 1022 4297 856 4297 
Q 691 4297 581 4405 
Q 472 4513 472 4675 
z
M 544 0 
L 544 3456 
L 1156 3456 
L 1156 0 
L 544 0 
z
" transform="scale(0.015625)"/>
      <path id="MicrosoftYaHei-73" d="M 353 747 
Q 816 413 1350 413 
Q 2066 413 2066 881 
Q 2066 1081 1909 1211 
Q 1753 1341 1275 1519 
Q 700 1750 528 1976 
Q 356 2203 356 2525 
Q 356 2984 745 3261 
Q 1134 3538 1703 3538 
Q 2144 3538 2522 3384 
L 2522 2794 
Q 2134 3044 1644 3044 
Q 1350 3044 1165 2916 
Q 981 2788 981 2578 
Q 981 2372 1114 2256 
Q 1247 2141 1703 1959 
Q 2281 1744 2484 1512 
Q 2688 1281 2688 941 
Q 2688 466 2298 192 
Q 1909 -81 1291 -81 
Q 753 -81 353 122 
L 353 747 
z
" transform="scale(0.015625)"/>
      <path id="MicrosoftYaHei-6f" d="M 316 1691 
Q 316 2547 794 3042 
Q 1272 3538 2091 3538 
Q 2869 3538 3311 3061 
Q 3753 2584 3753 1744 
Q 3753 925 3281 422 
Q 2809 -81 2016 -81 
Q 1241 -81 778 406 
Q 316 894 316 1691 
z
M 941 1709 
Q 941 1113 1242 769 
Q 1544 425 2053 425 
Q 2578 425 2853 761 
Q 3128 1097 3128 1725 
Q 3128 2356 2853 2693 
Q 2578 3031 2053 3031 
Q 1538 3031 1239 2678 
Q 941 2325 941 1709 
z
" transform="scale(0.015625)"/>
      <path id="MicrosoftYaHei-6e" d="M 3469 0 
L 2859 0 
L 2859 1966 
Q 2859 3031 2081 3031 
Q 1678 3031 1418 2731 
Q 1159 2431 1159 1972 
L 1159 0 
L 547 0 
L 547 3456 
L 1159 3456 
L 1159 2884 
L 1172 2884 
Q 1563 3538 2306 3538 
Q 2875 3538 3172 3173 
Q 3469 2809 3469 2113 
L 3469 0 
z
" transform="scale(0.015625)"/>
     </defs>
     <use xlink:href="#MicrosoftYaHei-50"/>
     <use xlink:href="#MicrosoftYaHei-72" transform="translate(61.181641 0)"/>
     <use xlink:href="#MicrosoftYaHei-65" transform="translate(97.990234 0)"/>
     <use xlink:href="#MicrosoftYaHei-63" transform="translate(154.728516 0)"/>
     <use xlink:href="#MicrosoftYaHei-69" transform="translate(204.875 0)"/>
     <use xlink:href="#MicrosoftYaHei-73" transform="translate(231.486328 0)"/>
     <use xlink:href="#MicrosoftYaHei-69" transform="translate(277.775391 0)"/>
     <use xlink:href="#MicrosoftYaHei-6f" transform="translate(304.386719 0)"/>
     <use xlink:href="#MicrosoftYaHei-6e" transform="translate(367.960938 0)"/>
     <use xlink:href="#MicrosoftYaHei-3d" transform="translate(429.582031 0)"/>
     <use xlink:href="#MicrosoftYaHei-30" transform="translate(503.751953 0)"/>
     <use xlink:href="#MicrosoftYaHei-2e" transform="translate(562.394531 0)"/>
     <use xlink:href="#MicrosoftYaHei-38" transform="translate(586.466797 0)"/>
     <use xlink:href="#MicrosoftYaHei-30" transform="translate(645.109375 0)"/>
     <use xlink:href="#MicrosoftYaHei-30" transform="translate(703.751953 0)"/>
     <use xlink:href="#MicrosoftYaHei-30" transform="translate(762.394531 0)"/>
    </g>
    <!-- Recall=0.5000 -->
    <g style="fill: #262626" transform="translate(424.679894 96.239237) scale(0.11 -0.11)">
     <defs>
      <path id="MicrosoftYaHei-52" d="M 4159 0 
L 3422 0 
L 2619 1344 
Q 2378 1747 2178 1892 
Q 1978 2038 1700 2038 
L 1250 2038 
L 1250 0 
L 625 0 
L 625 4841 
L 2100 4841 
Q 2806 4841 3206 4500 
Q 3606 4159 3606 3547 
Q 3606 2541 2531 2241 
L 2531 2225 
Q 2731 2141 2876 1984 
Q 3022 1828 3253 1450 
L 4159 0 
z
M 1250 4294 
L 1250 2584 
L 1988 2584 
Q 2416 2584 2683 2834 
Q 2950 3084 2950 3491 
Q 2950 3869 2706 4081 
Q 2463 4294 1997 4294 
L 1250 4294 
z
" transform="scale(0.015625)"/>
      <path id="MicrosoftYaHei-6c" d="M 544 0 
L 544 5116 
L 1156 5116 
L 1156 0 
L 544 0 
z
" transform="scale(0.015625)"/>
     </defs>
     <use xlink:href="#MicrosoftYaHei-52"/>
     <use xlink:href="#MicrosoftYaHei-65" transform="translate(62.283203 0)"/>
     <use xlink:href="#MicrosoftYaHei-63" transform="translate(119.021484 0)"/>
     <use xlink:href="#MicrosoftYaHei-61" transform="translate(169.167969 0)"/>
     <use xlink:href="#MicrosoftYaHei-6c" transform="translate(224.441406 0)"/>
     <use xlink:href="#MicrosoftYaHei-6c" transform="translate(251.052734 0)"/>
     <use xlink:href="#MicrosoftYaHei-3d" transform="translate(277.664062 0)"/>
     <use xlink:href="#MicrosoftYaHei-30" transform="translate(351.833984 0)"/>
     <use xlink:href="#MicrosoftYaHei-2e" transform="translate(410.476562 0)"/>
     <use xlink:href="#MicrosoftYaHei-35" transform="translate(434.548828 0)"/>
     <use xlink:href="#MicrosoftYaHei-30" transform="translate(493.191406 0)"/>
     <use xlink:href="#MicrosoftYaHei-30" transform="translate(551.833984 0)"/>
     <use xlink:href="#MicrosoftYaHei-30" transform="translate(610.476562 0)"/>
    </g>
    <!-- F1=0.6154 -->
    <g style="fill: #262626" transform="translate(442.927863 109.525519) scale(0.11 -0.11)">
     <defs>
      <path id="MicrosoftYaHei-46" d="M 3119 4284 
L 1250 4284 
L 1250 2666 
L 2981 2666 
L 2981 2116 
L 1250 2116 
L 1250 0 
L 625 0 
L 625 4841 
L 3119 4841 
L 3119 4284 
z
" transform="scale(0.015625)"/>
     </defs>
     <use xlink:href="#MicrosoftYaHei-46"/>
     <use xlink:href="#MicrosoftYaHei-31" transform="translate(53.125 0)"/>
     <use xlink:href="#MicrosoftYaHei-3d" transform="translate(111.767578 0)"/>
     <use xlink:href="#MicrosoftYaHei-30" transform="translate(185.9375 0)"/>
     <use xlink:href="#MicrosoftYaHei-2e" transform="translate(244.580078 0)"/>
     <use xlink:href="#MicrosoftYaHei-36" transform="translate(268.652344 0)"/>
     <use xlink:href="#MicrosoftYaHei-31" transform="translate(327.294922 0)"/>
     <use xlink:href="#MicrosoftYaHei-35" transform="translate(385.9375 0)"/>
     <use xlink:href="#MicrosoftYaHei-34" transform="translate(444.580078 0)"/>
    </g>
   </g>
   <g id="text_16">
    <!-- 西瓜数据集 3.0a PR 曲线 -->
    <g style="fill: #262626" transform="translate(176.5425 21.58875) scale(0.18 -0.18)">
     <defs>
      <path id="MicrosoftYaHei-Bold-897f" d="M 388 -809 
L 388 3491 
L 2019 3491 
L 2019 4203 
L 150 4203 
L 150 4991 
L 6250 4991 
L 6250 4203 
L 4294 4203 
L 4294 3491 
L 6013 3491 
L 6013 -803 
L 5138 -803 
L 5138 -397 
L 1263 -397 
L 1263 -809 
L 388 -809 
z
M 2844 3491 
L 3463 3491 
L 3463 4203 
L 2844 4203 
L 2844 3491 
z
M 3463 1772 
L 3463 2703 
L 2844 2703 
Q 2844 1341 1944 622 
Q 1581 925 1263 1138 
L 1263 391 
L 5138 391 
L 5138 1028 
L 4200 1028 
Q 3463 1028 3463 1772 
z
M 1263 1197 
Q 2019 1741 2019 2703 
L 1263 2703 
L 1263 1197 
z
M 5138 2703 
L 4294 2703 
L 4294 2122 
Q 4294 1822 4600 1822 
L 5138 1822 
L 5138 2703 
z
" transform="scale(0.015625)"/>
      <path id="MicrosoftYaHei-Bold-74dc" d="M 4156 1897 
Q 4588 653 4981 -641 
L 4331 -859 
L 4172 -297 
Q 2972 -528 2363 -766 
L 1913 53 
Q 2581 459 2625 2791 
L 2625 3994 
L 1781 3928 
L 1781 2628 
Q 1781 513 850 -847 
Q 538 -528 75 -216 
Q 938 841 919 2753 
L 919 4641 
Q 3469 4784 5494 5166 
L 6019 4397 
Q 5588 4328 5134 4266 
Q 5188 1563 6369 72 
Q 6038 -359 5688 -853 
Q 4503 734 4325 4166 
L 3488 4075 
L 3488 2741 
Q 3488 1256 3144 328 
Q 3534 394 3947 481 
L 3581 1709 
L 4156 1897 
z
" transform="scale(0.015625)"/>
      <path id="MicrosoftYaHei-Bold-6570" d="M 238 4091 
L 725 4091 
Q 559 4425 281 4803 
L 844 5153 
Q 1038 4922 1369 4428 
L 806 4091 
L 1506 4091 
L 1506 5316 
L 2300 5316 
L 2300 4091 
L 2956 4091 
L 2438 4428 
Q 2750 4809 2963 5172 
L 3550 4822 
Q 3341 4466 3031 4091 
L 3394 4091 
L 3394 3453 
L 2300 3453 
L 2300 3016 
L 2513 3303 
Q 2903 3094 3253 2891 
Q 3766 3841 4138 5347 
L 4994 5266 
Q 4869 4781 4728 4341 
L 6294 4341 
L 6294 3578 
L 6041 3578 
Q 5906 1922 5338 856 
Q 5738 391 6319 53 
Q 6094 -203 5775 -778 
Q 5228 -413 4828 109 
Q 4313 -497 3631 -872 
Q 3378 -513 3072 -197 
L 2850 -566 
Q 2475 -350 2031 -128 
Q 1347 -584 394 -778 
Q 281 -434 63 -9 
Q 716 59 1213 253 
Q 781 444 300 641 
Q 513 950 681 1259 
L 169 1259 
L 169 1897 
L 991 1897 
Q 1094 2144 1169 2391 
L 1506 2359 
L 1506 2959 
Q 1044 2472 344 2053 
Q 213 2472 50 2803 
Q 672 3044 1172 3453 
L 238 3453 
L 238 4091 
z
M 4394 3400 
Q 4519 2359 4831 1659 
Q 5203 2478 5275 3578 
L 4463 3578 
Q 4431 3488 4394 3400 
z
M 2300 2216 
L 1984 2216 
Q 1913 2063 1825 1897 
L 3281 1897 
L 3281 1316 
Q 3038 806 2672 413 
L 3294 166 
L 3169 -38 
Q 3859 322 4347 894 
Q 4041 1522 3878 2300 
Q 3769 2103 3656 1922 
Q 3513 2172 3322 2438 
L 3138 2159 
Q 2750 2422 2300 2691 
L 2300 2216 
z
M 1300 934 
L 1950 691 
Q 2231 934 2413 1259 
L 1484 1259 
L 1300 934 
z
" transform="scale(0.015625)"/>
      <path id="MicrosoftYaHei-Bold-636e" d="M 6294 1916 
L 4869 1916 
L 4869 1391 
L 5919 1391 
L 5919 -853 
L 5181 -853 
L 5181 -541 
L 3788 -541 
L 3788 -853 
L 3050 -853 
L 3050 1391 
L 4081 1391 
L 4081 1916 
L 2988 1916 
Q 2875 203 2188 -803 
Q 1925 -459 1625 -166 
Q 2250 928 2250 2803 
L 2250 5084 
L 6031 5084 
L 6031 3128 
L 4869 3128 
L 4869 2572 
L 6294 2572 
L 6294 1916 
z
M 169 4147 
L 763 4147 
L 763 5253 
L 1519 5253 
L 1519 4147 
L 2056 4147 
L 2056 3347 
L 1519 3347 
L 1519 2472 
Q 1788 2528 2088 2603 
Q 2056 2103 2063 1791 
Q 1788 1722 1519 1653 
L 1519 -59 
Q 1519 -753 950 -772 
Q 619 -803 313 -791 
Q 250 -422 131 22 
Q 338 16 550 9 
Q 763 3 763 309 
L 763 1459 
Q 463 1378 163 1303 
L 94 2166 
Q 375 2222 763 2303 
L 763 3347 
L 169 3347 
L 169 4147 
z
M 5263 3784 
L 5263 4428 
L 3013 4428 
L 3013 3784 
L 5263 3784 
z
M 5181 734 
L 3788 734 
L 3788 116 
L 5181 116 
L 5181 734 
z
M 4081 2572 
L 4081 3128 
L 3013 3128 
L 3013 2572 
L 4081 2572 
z
" transform="scale(0.015625)"/>
      <path id="MicrosoftYaHei-Bold-96c6" d="M 3613 5359 
Q 3778 5066 3931 4734 
L 5963 4734 
L 5963 4197 
L 3875 4197 
L 3875 3866 
L 5738 3866 
L 5738 3366 
L 3875 3366 
L 3875 3034 
L 5738 3034 
L 5738 2534 
L 3875 2534 
L 3875 2203 
L 6050 2203 
L 6050 1653 
L 1613 1653 
L 1613 1428 
L 788 1428 
L 788 3238 
Q 619 3075 438 2922 
Q 275 3428 88 3834 
Q 844 4422 1325 5322 
L 2194 5134 
Q 2088 4928 1972 4734 
L 3044 4734 
Q 2928 4994 2806 5216 
L 3613 5359 
z
M 1613 4184 
L 1613 3866 
L 3050 3866 
L 3050 4197 
L 1619 4197 
L 1613 4184 
z
M 1613 3034 
L 3050 3034 
L 3050 3366 
L 1613 3366 
L 1613 3034 
z
M 1613 2203 
L 3050 2203 
L 3050 2534 
L 1613 2534 
L 1613 2203 
z
M 2781 1516 
L 3606 1516 
L 3606 1228 
L 6225 1228 
L 6225 628 
L 4394 628 
Q 5159 197 6313 -3 
Q 6044 -428 5875 -747 
Q 4388 -338 3606 447 
L 3606 -834 
L 2781 -834 
L 2781 394 
Q 1956 -331 519 -809 
Q 363 -484 88 -84 
Q 1284 213 2006 628 
L 225 628 
L 225 1228 
L 2781 1228 
L 2781 1516 
z
" transform="scale(0.015625)"/>
      <path id="MicrosoftYaHei-Bold-20" transform="scale(0.015625)"/>
      <path id="MicrosoftYaHei-Bold-33" d="M 494 1053 
Q 978 691 1625 691 
Q 2034 691 2275 872 
Q 2516 1053 2516 1388 
Q 2516 1731 2230 1912 
Q 1944 2094 1428 2094 
L 997 2094 
L 997 2872 
L 1394 2872 
Q 2369 2872 2369 3528 
Q 2369 4147 1622 4147 
Q 1134 4147 675 3828 
L 675 4663 
Q 1175 4922 1853 4922 
Q 2541 4922 2969 4605 
Q 3397 4288 3397 3725 
Q 3397 2775 2434 2531 
L 2434 2516 
Q 2941 2459 3244 2145 
Q 3547 1831 3547 1381 
Q 3547 691 3042 303 
Q 2538 -84 1697 -84 
Q 950 -84 494 163 
L 494 1053 
z
" transform="scale(0.015625)"/>
      <path id="MicrosoftYaHei-Bold-2e" d="M 313 453 
Q 313 688 491 838 
Q 669 988 916 988 
Q 1166 988 1337 834 
Q 1509 681 1509 453 
Q 1509 213 1337 64 
Q 1166 -84 903 -84 
Q 659 -84 486 69 
Q 313 222 313 453 
z
" transform="scale(0.015625)"/>
      <path id="MicrosoftYaHei-Bold-30" d="M 244 2341 
Q 244 3597 706 4259 
Q 1169 4922 2044 4922 
Q 3713 4922 3713 2453 
Q 3713 1238 3259 577 
Q 2806 -84 1950 -84 
Q 244 -84 244 2341 
z
M 1266 2366 
Q 1266 691 1981 691 
Q 2684 691 2684 2416 
Q 2684 4147 2000 4147 
Q 1266 4147 1266 2366 
z
" transform="scale(0.015625)"/>
      <path id="MicrosoftYaHei-Bold-66f2" d="M 413 -822 
L 413 4466 
L 1988 4466 
L 1988 5328 
L 2825 5328 
L 2825 4466 
L 3575 4466 
L 3575 5328 
L 4413 5328 
L 4413 4466 
L 5988 4466 
L 5988 -822 
L 5163 -822 
L 5163 -428 
L 1238 -428 
L 1238 -822 
L 413 -822 
z
M 5163 3647 
L 4413 3647 
L 4413 2453 
L 5163 2453 
L 5163 3647 
z
M 1238 2453 
L 1988 2453 
L 1988 3647 
L 1238 3647 
L 1238 2453 
z
M 2825 2453 
L 3575 2453 
L 3575 3647 
L 2825 3647 
L 2825 2453 
z
M 1238 391 
L 1988 391 
L 1988 1634 
L 1238 1634 
L 1238 391 
z
M 4413 391 
L 5163 391 
L 5163 1634 
L 4413 1634 
L 4413 391 
z
M 2825 391 
L 3575 391 
L 3575 1634 
L 2825 1634 
L 2825 391 
z
" transform="scale(0.015625)"/>
      <path id="MicrosoftYaHei-Bold-7ebf" d="M 225 -528 
L 63 347 
Q 1188 491 2369 678 
Q 2353 481 2350 256 
Q 3069 481 3691 806 
Q 3550 1250 3466 1859 
L 2413 1734 
L 2306 2491 
L 3384 2619 
L 3347 3244 
L 2525 3159 
L 2488 3494 
Q 1859 2456 1356 1778 
Q 1919 1859 2294 1928 
Q 2263 1672 2231 1147 
Q 888 972 431 847 
L 200 1547 
Q 597 1922 1075 2641 
Q 738 2613 294 2566 
L 63 3278 
Q 581 3916 1194 5322 
L 1988 5009 
Q 1438 4034 1000 3353 
Q 1234 3356 1531 3372 
Q 1700 3663 1881 3991 
L 2466 3716 
L 2444 3922 
L 3303 4006 
L 3250 5303 
L 4094 5303 
Q 4103 4669 4128 4088 
L 5219 4194 
Q 4844 4469 4350 4778 
L 4756 5316 
Q 5263 5041 5769 4716 
L 5388 4213 
L 5988 4272 
L 6063 3522 
L 4169 3328 
L 4216 2716 
L 6156 2947 
L 6238 2197 
L 5484 2106 
L 6038 1666 
Q 5431 1003 4731 509 
Q 4991 100 5203 100 
Q 5316 100 5387 251 
Q 5459 403 5581 1047 
Q 6013 822 6313 684 
Q 6072 -288 5839 -564 
Q 5606 -841 5300 -841 
Q 4503 -841 4006 56 
Q 3259 -353 2419 -597 
Q 2325 -400 2200 -178 
Q 1084 -353 225 -528 
z
M 5413 2097 
L 4309 1963 
Q 4369 1603 4447 1266 
Q 4972 1638 5413 2097 
z
" transform="scale(0.015625)"/>
     </defs>
     <use xlink:href="#MicrosoftYaHei-Bold-897f"/>
     <use xlink:href="#MicrosoftYaHei-Bold-74dc" transform="translate(100 0)"/>
     <use xlink:href="#MicrosoftYaHei-Bold-6570" transform="translate(200 0)"/>
     <use xlink:href="#MicrosoftYaHei-Bold-636e" transform="translate(300 0)"/>
     <use xlink:href="#MicrosoftYaHei-Bold-96c6" transform="translate(400 0)"/>
     <use xlink:href="#MicrosoftYaHei-Bold-20" transform="translate(500 0)"/>
     <use xlink:href="#MicrosoftYaHei-Bold-33" transform="translate(529.785156 0)"/>
     <use xlink:href="#MicrosoftYaHei-Bold-2e" transform="translate(591.455078 0)"/>
     <use xlink:href="#MicrosoftYaHei-Bold-30" transform="translate(620.019531 0)"/>
     <use xlink:href="#MicrosoftYaHei-Bold-61" transform="translate(681.689453 0)"/>
     <use xlink:href="#MicrosoftYaHei-Bold-20" transform="translate(739.453125 0)"/>
     <use xlink:href="#MicrosoftYaHei-Bold-50" transform="translate(769.238281 0)"/>
     <use xlink:href="#MicrosoftYaHei-Bold-52" transform="translate(834.960938 0)"/>
     <use xlink:href="#MicrosoftYaHei-Bold-20" transform="translate(904.785156 0)"/>
     <use xlink:href="#MicrosoftYaHei-Bold-66f2" transform="translate(934.570312 0)"/>
     <use xlink:href="#MicrosoftYaHei-Bold-7ebf" transform="translate(1034.570312 0)"/>
    </g>
   </g>
   <g id="legend_1">
    <g id="patch_8">
     <path d="M 58.273125 364.22875 
L 191.01 364.22875 
Q 193.41 364.22875 193.41 361.82875 
L 193.41 344.453125 
Q 193.41 342.053125 191.01 342.053125 
L 58.273125 342.053125 
Q 55.873125 342.053125 55.873125 344.453125 
L 55.873125 361.82875 
Q 55.873125 364.22875 58.273125 364.22875 
z
" style="fill: #ffffff; opacity: 0.8; stroke: #cccccc; stroke-linejoin: miter"/>
    </g>
    <g id="line2d_14">
     <path d="M 60.673125 352.245625 
L 72.673125 352.245625 
L 72.673125 352.245625 
L 84.673125 352.245625 
L 84.673125 352.245625 
" style="fill: none; stroke: #2563eb; stroke-width: 2.8; stroke-linecap: round"/>
    </g>
    <g id="text_17">
     <!-- AUPRC = 0.7912 -->
     <g style="fill: #262626" transform="translate(94.273125 356.445625) scale(0.12 -0.12)">
      <defs>
       <path id="MicrosoftYaHei-55" d="M 4213 1972 
Q 4213 -81 2350 -81 
Q 566 -81 566 1900 
L 566 4841 
L 1191 4841 
L 1191 1928 
Q 1191 475 2409 475 
Q 3588 475 3588 1881 
L 3588 4841 
L 4213 4841 
L 4213 1972 
z
" transform="scale(0.015625)"/>
       <path id="MicrosoftYaHei-43" d="M 3938 200 
Q 3403 -81 2597 -81 
Q 1556 -81 934 580 
Q 313 1241 313 2328 
Q 313 3497 1013 4209 
Q 1713 4922 2791 4922 
Q 3484 4922 3938 4725 
L 3938 4072 
Q 3419 4359 2797 4359 
Q 1988 4359 1478 3820 
Q 969 3281 969 2366 
Q 969 1497 1444 986 
Q 1919 475 2688 475 
Q 3406 475 3938 800 
L 3938 200 
z
" transform="scale(0.015625)"/>
       <path id="MicrosoftYaHei-20" transform="scale(0.015625)"/>
      </defs>
      <use xlink:href="#MicrosoftYaHei-41"/>
      <use xlink:href="#MicrosoftYaHei-55" transform="translate(68.986328 0)"/>
      <use xlink:href="#MicrosoftYaHei-50" transform="translate(143.644531 0)"/>
      <use xlink:href="#MicrosoftYaHei-52" transform="translate(204.826172 0)"/>
      <use xlink:href="#MicrosoftYaHei-43" transform="translate(268.609375 0)"/>
      <use xlink:href="#MicrosoftYaHei-20" transform="translate(335.503906 0)"/>
      <use xlink:href="#MicrosoftYaHei-3d" transform="translate(365.09375 0)"/>
      <use xlink:href="#MicrosoftYaHei-20" transform="translate(439.263672 0)"/>
      <use xlink:href="#MicrosoftYaHei-30" transform="translate(468.853516 0)"/>
      <use xlink:href="#MicrosoftYaHei-2e" transform="translate(527.496094 0)"/>
      <use xlink:href="#MicrosoftYaHei-37" transform="translate(551.568359 0)"/>
      <use xlink:href="#MicrosoftYaHei-39" transform="translate(610.210938 0)"/>
      <use xlink:href="#MicrosoftYaHei-31" transform="translate(668.853516 0)"/>
      <use xlink:href="#MicrosoftYaHei-32" transform="translate(727.496094 0)"/>
     </g>
    </g>
   </g>
  </g>
 </g>
 <defs>
  <clipPath id="p2784868b3c">
   <rect x="49.873125" y="37.58875" width="457.56" height="332.64"/>
  </clipPath>
 </defs>
</svg>
