<?xml version="1.0" encoding="utf-8" standalone="no"?>
<!DOCTYPE svg PUBLIC "-//W3C//DTD SVG 1.1//EN"
  "http://www.w3.org/Graphics/SVG/1.1/DTD/svg11.dtd">
<svg xmlns:xlink="http://www.w3.org/1999/xlink" width="438.089165pt" height="365.351875pt" viewBox="0 0 438.089165 365.351875" xmlns="http://www.w3.org/2000/svg" version="1.1">
 <metadata>
  <rdf:RDF xmlns:dc="http://purl.org/dc/elements/1.1/" xmlns:cc="http://creativecommons.org/ns#" xmlns:rdf="http://www.w3.org/1999/02/22-rdf-syntax-ns#">
   <cc:Work>
    <dc:type rdf:resource="http://purl.org/dc/dcmitype/StillImage"/>
    <dc:date>2026-05-21T10:58:31.426226</dc:date>
    <dc:format>image/svg+xml</dc:format>
    <dc:creator>
     <cc:Agent>
      <dc:title>Matplotlib v3.10.0, https://matplotlib.org/</dc:title>
     </cc:Agent>
    </dc:creator>
   </cc:Work>
  </rdf:RDF>
 </metadata>
 <defs>
  <style type="text/css">*{stroke-linejoin: round; stroke-linecap: butt}</style>
 </defs>
 <g id="figure_1">
  <g id="patch_1">
   <path d="M 0 365.351875 
L 438.089165 365.351875 
L 438.089165 0 
L 0 0 
z
" style="fill: #ffffff"/>
  </g>
  <g id="axes_1">
   <g id="patch_2">
    <path d="M 42.815625 326.1925 
L 426.027058 326.1925 
L 426.027058 22.7925 
L 42.815625 22.7925 
z
" style="fill: #ffffff"/>
   </g>
   <g id="PathCollection_1">
    <defs>
     <path id="m0bf32a2a34" d="M 0 3.464102 
C 0.91869 3.464102 1.799877 3.099102 2.44949 2.44949 
C 3.099102 1.799877 3.464102 0.91869 3.464102 0 
C 3.464102 -0.91869 3.099102 -1.799877 2.44949 -2.44949 
C 1.799877 -3.099102 0.91869 -3.464102 0 -3.464102 
C -0.91869 -3.464102 -1.799877 -3.099102 -2.44949 -2.44949 
C -3.099102 -1.799877 -3.464102 -0.91869 -3.464102 0 
C -3.464102 0.91869 -3.099102 1.799877 -2.44949 2.44949 
C -1.799877 3.099102 -0.91869 3.464102 0 3.464102 
z
" style="stroke: #1f77b4"/>
    </defs>
    <g clip-path="url(#pb5447b86b8)">
     <use xlink:href="#m0bf32a2a34" x="393.395517" y="192.34022" style="fill: #1f77b4; stroke: #1f77b4"/>
     <use xlink:href="#m0bf32a2a34" x="329.50159" y="186.920237" style="fill: #1f77b4; stroke: #1f77b4"/>
     <use xlink:href="#m0bf32a2a34" x="244.309687" y="196.774761" style="fill: #1f77b4; stroke: #1f77b4"/>
     <use xlink:href="#m0bf32a2a34" x="285.384355" y="198.60492" style="fill: #1f77b4; stroke: #1f77b4"/>
     <use xlink:href="#m0bf32a2a34" x="207.03823" y="202.265162" style="fill: #1f77b4; stroke: #1f77b4"/>
     <use xlink:href="#m0bf32a2a34" x="223.772354" y="213.034784" style="fill: #1f77b4; stroke: #1f77b4"/>
     <use xlink:href="#m0bf32a2a34" x="156.835859" y="207.544383" style="fill: #1f77b4; stroke: #1f77b4"/>
     <use xlink:href="#m0bf32a2a34" x="203.995662" y="210.641543" style="fill: #1f77b4; stroke: #1f77b4"/>
     <use xlink:href="#m0bf32a2a34" x="112.718624" y="194.522319" style="fill: #1f77b4; stroke: #1f77b4"/>
     <use xlink:href="#m0bf32a2a34" x="246.591613" y="224.297108" style="fill: #1f77b4; stroke: #1f77b4"/>
     <use xlink:href="#m0bf32a2a34" x="86.856796" y="224.156329" style="fill: #1f77b4; stroke: #1f77b4"/>
     <use xlink:href="#m0bf32a2a34" x="118.80376" y="217.258146" style="fill: #1f77b4; stroke: #1f77b4"/>
     <use xlink:href="#m0bf32a2a34" x="165.963563" y="196.422821" style="fill: #1f77b4; stroke: #1f77b4"/>
     <use xlink:href="#m0bf32a2a34" x="194.107316" y="195.155819" style="fill: #1f77b4; stroke: #1f77b4"/>
     <use xlink:href="#m0bf32a2a34" x="324.937738" y="216.061526" style="fill: #1f77b4; stroke: #1f77b4"/>
     <use xlink:href="#m0bf32a2a34" x="75.447166" y="199.660742" style="fill: #1f77b4; stroke: #1f77b4"/>
     <use xlink:href="#m0bf32a2a34" x="121.846327" y="190.791659" style="fill: #1f77b4; stroke: #1f77b4"/>
    </g>
   </g>
   <g id="PathCollection_2">
    <defs>
     <path id="m83a8589f9c" d="M 0 3.464102 
C 0.91869 3.464102 1.799877 3.099102 2.44949 2.44949 
C 3.099102 1.799877 3.464102 0.91869 3.464102 0 
C 3.464102 -0.91869 3.099102 -1.799877 2.44949 -2.44949 
C 1.799877 -3.099102 0.91869 -3.464102 0 -3.464102 
C -0.91869 -3.464102 -1.799877 -3.099102 -2.44949 -2.44949 
C -3.099102 -1.799877 -3.464102 -0.91869 -3.464102 0 
C -3.464102 0.91869 -3.099102 1.799877 -2.44949 2.44949 
C -1.799877 3.099102 -0.91869 3.464102 0 3.464102 
z
" style="stroke: #ff7f0e"/>
    </defs>
    <g clip-path="url(#pb5447b86b8)">
     <use xlink:href="#m83a8589f9c" x="393.395517" y="183.253425" style="fill: #ff7f0e; stroke: #ff7f0e"/>
     <use xlink:href="#m83a8589f9c" x="329.50159" y="163.610253" style="fill: #ff7f0e; stroke: #ff7f0e"/>
     <use xlink:href="#m83a8589f9c" x="244.309687" y="196.774757" style="fill: #ff7f0e; stroke: #ff7f0e"/>
     <use xlink:href="#m83a8589f9c" x="285.384355" y="201.376404" style="fill: #ff7f0e; stroke: #ff7f0e"/>
     <use xlink:href="#m83a8589f9c" x="207.03823" y="208.55043" style="fill: #ff7f0e; stroke: #ff7f0e"/>
     <use xlink:href="#m83a8589f9c" x="223.772354" y="213.034794" style="fill: #ff7f0e; stroke: #ff7f0e"/>
     <use xlink:href="#m83a8589f9c" x="156.835859" y="213.78229" style="fill: #ff7f0e; stroke: #ff7f0e"/>
     <use xlink:href="#m83a8589f9c" x="203.995662" y="214.08012" style="fill: #ff7f0e; stroke: #ff7f0e"/>
     <use xlink:href="#m83a8589f9c" x="112.718624" y="190.286524" style="fill: #ff7f0e; stroke: #ff7f0e"/>
     <use xlink:href="#m83a8589f9c" x="246.591613" y="197.584938" style="fill: #ff7f0e; stroke: #ff7f0e"/>
     <use xlink:href="#m83a8589f9c" x="86.856796" y="197.843041" style="fill: #ff7f0e; stroke: #ff7f0e"/>
     <use xlink:href="#m83a8589f9c" x="118.80376" y="208.895785" style="fill: #ff7f0e; stroke: #ff7f0e"/>
     <use xlink:href="#m83a8589f9c" x="165.963563" y="195.818374" style="fill: #ff7f0e; stroke: #ff7f0e"/>
     <use xlink:href="#m83a8589f9c" x="194.107316" y="192.196797" style="fill: #ff7f0e; stroke: #ff7f0e"/>
     <use xlink:href="#m83a8589f9c" x="324.937738" y="210.330423" style="fill: #ff7f0e; stroke: #ff7f0e"/>
     <use xlink:href="#m83a8589f9c" x="75.447166" y="203.732667" style="fill: #ff7f0e; stroke: #ff7f0e"/>
     <use xlink:href="#m83a8589f9c" x="121.846327" y="177.897109" style="fill: #ff7f0e; stroke: #ff7f0e"/>
    </g>
   </g>
   <g id="matplotlib.axis_1">
    <g id="xtick_1">
     <g id="line2d_1">
      <path d="M 43.500203 326.1925 
L 43.500203 22.7925 
" clip-path="url(#pb5447b86b8)" style="fill: none; stroke-dasharray: 2.96,1.28; stroke-dashoffset: 0; stroke: #b0b0b0; stroke-opacity: 0.35; stroke-width: 0.8"/>
     </g>
     <g id="line2d_2">
      <defs>
       <path id="mc05c158abd" d="M 0 0 
L 0 3.5 
" style="stroke: #000000; stroke-width: 0.8"/>
      </defs>
      <g>
       <use xlink:href="#mc05c158abd" x="43.500203" y="326.1925" style="stroke: #000000; stroke-width: 0.8"/>
      </g>
     </g>
     <g id="text_1">
      <!-- 0.0 -->
      <g transform="translate(36.432234 341.18625) scale(0.1 -0.1)">
       <defs>
        <path id="MicrosoftYaHei-30" d="M 284 2325 
Q 284 3606 709 4264 
Q 1134 4922 1941 4922 
Q 3478 4922 3478 2441 
Q 3478 1216 3045 567 
Q 2613 -81 1831 -81 
Q 1094 -81 689 534 
Q 284 1150 284 2325 
z
M 909 2353 
Q 909 425 1888 425 
Q 2850 425 2850 2384 
Q 2850 4413 1906 4413 
Q 909 4413 909 2353 
z
" transform="scale(0.015625)"/>
        <path id="MicrosoftYaHei-2e" d="M 372 322 
Q 372 491 487 606 
Q 603 722 775 722 
Q 950 722 1065 605 
Q 1181 488 1181 322 
Q 1181 159 1065 42 
Q 950 -75 772 -75 
Q 600 -75 486 42 
Q 372 159 372 322 
z
" transform="scale(0.015625)"/>
       </defs>
       <use xlink:href="#MicrosoftYaHei-30"/>
       <use xlink:href="#MicrosoftYaHei-2e" transform="translate(58.642578 0)"/>
       <use xlink:href="#MicrosoftYaHei-30" transform="translate(82.714844 0)"/>
      </g>
     </g>
    </g>
    <g id="xtick_2">
     <g id="line2d_3">
      <path d="M 119.564401 326.1925 
L 119.564401 22.7925 
" clip-path="url(#pb5447b86b8)" style="fill: none; stroke-dasharray: 2.96,1.28; stroke-dashoffset: 0; stroke: #b0b0b0; stroke-opacity: 0.35; stroke-width: 0.8"/>
     </g>
     <g id="line2d_4">
      <g>
       <use xlink:href="#mc05c158abd" x="119.564401" y="326.1925" style="stroke: #000000; stroke-width: 0.8"/>
      </g>
     </g>
     <g id="text_2">
      <!-- 0.1 -->
      <g transform="translate(112.496433 341.18625) scale(0.1 -0.1)">
       <defs>
        <path id="MicrosoftYaHei-31" d="M 1781 0 
L 1781 4141 
Q 1638 3997 1295 3819 
Q 953 3641 663 3569 
L 663 4169 
Q 1047 4275 1484 4508 
Q 1922 4741 2156 4947 
L 2388 4947 
L 2388 0 
L 1781 0 
z
" transform="scale(0.015625)"/>
       </defs>
       <use xlink:href="#MicrosoftYaHei-30"/>
       <use xlink:href="#MicrosoftYaHei-2e" transform="translate(58.642578 0)"/>
       <use xlink:href="#MicrosoftYaHei-31" transform="translate(82.714844 0)"/>
      </g>
     </g>
    </g>
    <g id="xtick_3">
     <g id="line2d_5">
      <path d="M 195.6286 326.1925 
L 195.6286 22.7925 
" clip-path="url(#pb5447b86b8)" style="fill: none; stroke-dasharray: 2.96,1.28; stroke-dashoffset: 0; stroke: #b0b0b0; stroke-opacity: 0.35; stroke-width: 0.8"/>
     </g>
     <g id="line2d_6">
      <g>
       <use xlink:href="#mc05c158abd" x="195.6286" y="326.1925" style="stroke: #000000; stroke-width: 0.8"/>
      </g>
     </g>
     <g id="text_3">
      <!-- 0.2 -->
      <g transform="translate(188.560631 341.18625) scale(0.1 -0.1)">
       <defs>
        <path id="MicrosoftYaHei-32" d="M 2666 3572 
Q 2666 3963 2419 4186 
Q 2172 4409 1747 4409 
Q 1447 4409 1140 4256 
Q 834 4103 569 3819 
L 569 4413 
Q 806 4659 1107 4790 
Q 1409 4922 1816 4922 
Q 2472 4922 2872 4570 
Q 3272 4219 3272 3619 
Q 3272 3084 3026 2693 
Q 2781 2303 2188 1894 
Q 1581 1475 1376 1294 
Q 1172 1113 1090 947 
Q 1009 781 1009 544 
L 3416 544 
L 3416 0 
L 372 0 
L 372 241 
Q 372 659 486 951 
Q 600 1244 862 1520 
Q 1125 1797 1681 2184 
Q 2250 2584 2458 2886 
Q 2666 3188 2666 3572 
z
" transform="scale(0.015625)"/>
       </defs>
       <use xlink:href="#MicrosoftYaHei-30"/>
       <use xlink:href="#MicrosoftYaHei-2e" transform="translate(58.642578 0)"/>
       <use xlink:href="#MicrosoftYaHei-32" transform="translate(82.714844 0)"/>
      </g>
     </g>
    </g>
    <g id="xtick_4">
     <g id="line2d_7">
      <path d="M 271.692799 326.1925 
L 271.692799 22.7925 
" clip-path="url(#pb5447b86b8)" style="fill: none; stroke-dasharray: 2.96,1.28; stroke-dashoffset: 0; stroke: #b0b0b0; stroke-opacity: 0.35; stroke-width: 0.8"/>
     </g>
     <g id="line2d_8">
      <g>
       <use xlink:href="#mc05c158abd" x="271.692799" y="326.1925" style="stroke: #000000; stroke-width: 0.8"/>
      </g>
     </g>
     <g id="text_4">
      <!-- 0.3 -->
      <g transform="translate(264.62483 341.18625) scale(0.1 -0.1)">
       <defs>
        <path id="MicrosoftYaHei-33" d="M 447 809 
Q 944 425 1569 425 
Q 2069 425 2361 670 
Q 2653 916 2653 1328 
Q 2653 2247 1338 2247 
L 934 2247 
L 934 2753 
L 1319 2753 
Q 2484 2753 2484 3616 
Q 2484 4413 1594 4413 
Q 1084 4413 634 4069 
L 634 4647 
Q 1109 4922 1744 4922 
Q 2363 4922 2738 4598 
Q 3113 4275 3113 3759 
Q 3113 2809 2144 2538 
L 2144 2525 
Q 2669 2469 2973 2155 
Q 3278 1841 3278 1372 
Q 3278 719 2808 319 
Q 2338 -81 1556 -81 
Q 869 -81 447 175 
L 447 809 
z
" transform="scale(0.015625)"/>
       </defs>
       <use xlink:href="#MicrosoftYaHei-30"/>
       <use xlink:href="#MicrosoftYaHei-2e" transform="translate(58.642578 0)"/>
       <use xlink:href="#MicrosoftYaHei-33" transform="translate(82.714844 0)"/>
      </g>
     </g>
    </g>
    <g id="xtick_5">
     <g id="line2d_9">
      <path d="M 347.756998 326.1925 
L 347.756998 22.7925 
" clip-path="url(#pb5447b86b8)" style="fill: none; stroke-dasharray: 2.96,1.28; stroke-dashoffset: 0; stroke: #b0b0b0; stroke-opacity: 0.35; stroke-width: 0.8"/>
     </g>
     <g id="line2d_10">
      <g>
       <use xlink:href="#mc05c158abd" x="347.756998" y="326.1925" style="stroke: #000000; stroke-width: 0.8"/>
      </g>
     </g>
     <g id="text_5">
      <!-- 0.4 -->
      <g transform="translate(340.689029 341.18625) scale(0.1 -0.1)">
       <defs>
        <path id="MicrosoftYaHei-34" d="M 2906 4841 
L 2906 1644 
L 3631 1644 
L 3631 1138 
L 2906 1138 
L 2906 0 
L 2313 0 
L 2313 1138 
L 53 1138 
L 53 1616 
Q 656 2294 1265 3178 
Q 1875 4063 2272 4841 
L 2906 4841 
z
M 741 1644 
L 2313 1644 
L 2313 3950 
Q 1988 3366 1616 2817 
Q 1244 2269 741 1644 
z
" transform="scale(0.015625)"/>
       </defs>
       <use xlink:href="#MicrosoftYaHei-30"/>
       <use xlink:href="#MicrosoftYaHei-2e" transform="translate(58.642578 0)"/>
       <use xlink:href="#MicrosoftYaHei-34" transform="translate(82.714844 0)"/>
      </g>
     </g>
    </g>
    <g id="xtick_6">
     <g id="line2d_11">
      <path d="M 423.821196 326.1925 
L 423.821196 22.7925 
" clip-path="url(#pb5447b86b8)" style="fill: none; stroke-dasharray: 2.96,1.28; stroke-dashoffset: 0; stroke: #b0b0b0; stroke-opacity: 0.35; stroke-width: 0.8"/>
     </g>
     <g id="line2d_12">
      <g>
       <use xlink:href="#mc05c158abd" x="423.821196" y="326.1925" style="stroke: #000000; stroke-width: 0.8"/>
      </g>
     </g>
     <g id="text_6">
      <!-- 0.5 -->
      <g transform="translate(416.753228 341.18625) scale(0.1 -0.1)">
       <defs>
        <path id="MicrosoftYaHei-35" d="M 3294 1494 
Q 3294 784 2823 350 
Q 2353 -84 1559 -84 
Q 878 -84 544 119 
L 544 744 
Q 1034 425 1544 425 
Q 2050 425 2361 704 
Q 2672 984 2672 1447 
Q 2672 1909 2348 2167 
Q 2025 2425 1434 2425 
Q 978 2425 613 2384 
L 791 4841 
L 3053 4841 
L 3053 4303 
L 1306 4303 
L 1206 2931 
L 1647 2950 
Q 2416 2950 2855 2567 
Q 3294 2184 3294 1494 
z
" transform="scale(0.015625)"/>
       </defs>
       <use xlink:href="#MicrosoftYaHei-30"/>
       <use xlink:href="#MicrosoftYaHei-2e" transform="translate(58.642578 0)"/>
       <use xlink:href="#MicrosoftYaHei-35" transform="translate(82.714844 0)"/>
      </g>
     </g>
    </g>
    <g id="text_7">
     <!-- 真实含糖率 -->
     <g transform="translate(209.421342 355.665937) scale(0.1 -0.1)">
      <defs>
       <path id="MicrosoftYaHei-771f" d="M 156 778 
L 1056 778 
L 1056 3978 
L 2894 3978 
L 2894 4428 
L 250 4428 
L 250 4828 
L 2894 4828 
L 2894 5328 
L 3381 5328 
L 3381 4828 
L 6144 4828 
L 6144 4428 
L 3381 4428 
L 3381 3978 
L 5344 3978 
L 5344 778 
L 6263 778 
L 6263 378 
L 156 378 
L 156 778 
z
M 1531 778 
L 4869 778 
L 4869 1209 
L 1531 1209 
L 1531 778 
z
M 4869 3591 
L 1531 3591 
L 1531 3166 
L 4869 3166 
L 4869 3591 
z
M 1531 2372 
L 4869 2372 
L 4869 2797 
L 1531 2797 
L 1531 2372 
z
M 1531 1578 
L 4869 1578 
L 4869 2003 
L 1531 2003 
L 1531 1578 
z
M 3744 -72 
L 3975 316 
Q 4925 28 6169 -416 
L 5944 -859 
Q 4819 -422 3744 -72 
z
M 2369 334 
L 2663 -41 
Q 1656 -503 481 -891 
Q 388 -691 256 -453 
Q 1219 -172 2369 334 
z
" transform="scale(0.015625)"/>
       <path id="MicrosoftYaHei-5b9e" d="M 113 -397 
Q 2419 34 3081 972 
L 213 972 
L 213 1434 
L 3313 1434 
Q 3525 2084 3506 3703 
L 4031 3703 
Q 4031 2097 3856 1434 
L 6225 1434 
L 6225 972 
L 3681 972 
Q 3631 872 3563 759 
Q 4900 197 6181 -403 
L 5906 -878 
Q 4569 -197 3263 391 
Q 2413 -441 413 -891 
Q 269 -616 113 -397 
z
M 331 4422 
L 3194 4422 
Q 3038 4703 2775 5078 
L 3231 5334 
Q 3438 5059 3731 4609 
L 3388 4422 
L 6063 4422 
L 6063 3303 
L 5563 3303 
L 5563 3959 
L 831 3959 
L 831 3303 
L 331 3303 
L 331 4422 
z
M 1100 2734 
Q 1819 2409 2450 2053 
L 2181 1622 
Q 1556 2003 863 2334 
L 1100 2734 
z
M 1663 3691 
Q 2388 3341 2981 2984 
L 2700 2559 
Q 2119 2934 1419 3322 
L 1663 3691 
z
" transform="scale(0.015625)"/>
       <path id="MicrosoftYaHei-542b" d="M 975 1572 
L 5438 1572 
L 5438 -822 
L 4950 -822 
L 4950 -478 
L 1463 -478 
L 1463 -834 
L 975 -834 
L 975 1572 
z
M 1188 2622 
L 1188 3053 
L 4950 3053 
L 4950 2622 
Q 4550 2147 3981 1628 
Q 3800 1784 3594 1922 
Q 3981 2228 4350 2622 
L 1188 2622 
z
M 2631 3872 
L 2975 4134 
Q 3288 3809 3619 3422 
L 3244 3128 
Q 2975 3484 2631 3872 
z
M 3663 5291 
L 3519 5134 
Q 4525 3909 6313 3259 
Q 6100 2991 5988 2778 
Q 4094 3622 3206 4834 
Q 2050 3516 369 2672 
Q 244 2903 81 3109 
Q 1838 3934 2981 5291 
L 3663 5291 
z
M 4950 -34 
L 4950 1128 
L 1463 1128 
L 1463 -34 
L 4950 -34 
z
" transform="scale(0.015625)"/>
       <path id="MicrosoftYaHei-7cd6" d="M 3225 3728 
L 4288 3728 
L 4288 4116 
L 4700 4116 
L 4700 3728 
L 5900 3728 
L 5900 2866 
L 6275 2866 
L 6275 2491 
L 5900 2491 
L 5900 1459 
L 5488 1459 
L 5488 1616 
L 4700 1616 
L 4700 1184 
L 4288 1184 
L 4288 1616 
L 3225 1616 
L 3225 1978 
L 4288 1978 
L 4288 2491 
L 2988 2491 
Q 2975 1322 2844 753 
Q 2644 -153 2144 -866 
Q 1931 -597 1800 -478 
Q 2269 91 2438 897 
Q 2563 1491 2563 2722 
L 2563 4641 
L 4269 4641 
Q 4138 4891 3975 5159 
L 4375 5334 
Q 4575 5016 4763 4641 
L 6225 4641 
L 6225 4241 
L 2988 4241 
L 2988 2866 
L 4288 2866 
L 4288 3366 
L 3225 3366 
L 3225 3728 
z
M 3250 1041 
L 5850 1041 
L 5850 -822 
L 5425 -822 
L 5425 -553 
L 3675 -553 
L 3675 -822 
L 3250 -822 
L 3250 1041 
z
M 5425 653 
L 3675 653 
L 3675 -166 
L 5425 -166 
L 5425 653 
z
M 1644 3466 
Q 1925 4122 2075 4753 
L 2469 4634 
Q 2231 3834 2013 3334 
L 1644 3466 
z
M 81 4628 
L 431 4741 
Q 719 3928 850 3472 
L 456 3328 
Q 263 4091 81 4628 
z
M 4700 1978 
L 5488 1978 
L 5488 2491 
L 4700 2491 
L 4700 1978 
z
M 5488 3366 
L 4700 3366 
L 4700 2866 
L 5488 2866 
L 5488 3366 
z
M 75 547 
Q 631 1378 1000 2584 
L 156 2584 
L 156 2997 
L 1063 2997 
L 1063 5247 
L 1463 5247 
L 1463 2997 
L 2313 2997 
L 2313 2584 
L 1463 2584 
L 1463 1947 
L 1731 2122 
Q 2156 1603 2356 1284 
L 2006 1041 
Q 1813 1384 1463 1822 
L 1463 -841 
L 1063 -841 
L 1063 1797 
Q 719 772 269 47 
Q 169 334 75 547 
z
" transform="scale(0.015625)"/>
       <path id="MicrosoftYaHei-7387" d="M 2525 2009 
Q 2622 2016 3928 2081 
Q 3772 2300 3625 2491 
L 3963 2703 
Q 4413 2203 4794 1653 
L 4394 1403 
Q 4284 1569 4178 1725 
Q 2991 1659 2213 1597 
Q 2075 1584 1881 1541 
L 1725 1966 
Q 1913 2028 2006 2084 
Q 2534 2441 3050 2913 
Q 2597 2894 2275 2866 
Q 2144 2847 1988 2809 
L 1800 3191 
Q 1956 3247 2088 3366 
Q 2509 3722 2875 4228 
L 231 4228 
L 231 4666 
L 3031 4666 
Q 2878 4944 2744 5153 
L 3194 5372 
Q 3438 5000 3616 4666 
L 6175 4666 
L 6175 4228 
L 3053 4228 
L 3350 4072 
Q 2844 3553 2494 3247 
Q 2850 3256 3425 3269 
Q 3675 3519 3925 3797 
L 4356 3547 
Q 3363 2603 2525 2009 
z
M 144 991 
L 2994 991 
L 2994 1541 
L 3488 1541 
L 3488 991 
L 6275 991 
L 6275 553 
L 3488 553 
L 3488 -853 
L 2994 -853 
L 2994 553 
L 144 553 
L 144 991 
z
M 1719 2672 
L 1944 2303 
Q 1200 1866 425 1409 
L 163 1828 
Q 813 2134 1719 2672 
z
M 4856 2678 
Q 5750 2172 6250 1816 
L 5975 1409 
Q 5331 1909 4600 2341 
L 4856 2678 
z
M 5994 3591 
Q 5519 3178 4963 2809 
L 4644 3141 
Q 5244 3534 5638 3928 
L 5994 3591 
z
M 363 3634 
L 681 3941 
Q 1200 3528 1588 3159 
L 1238 2816 
Q 875 3197 363 3634 
z
" transform="scale(0.015625)"/>
      </defs>
      <use xlink:href="#MicrosoftYaHei-771f"/>
      <use xlink:href="#MicrosoftYaHei-5b9e" transform="translate(100 0)"/>
      <use xlink:href="#MicrosoftYaHei-542b" transform="translate(200 0)"/>
      <use xlink:href="#MicrosoftYaHei-7cd6" transform="translate(300 0)"/>
      <use xlink:href="#MicrosoftYaHei-7387" transform="translate(400 0)"/>
     </g>
    </g>
   </g>
   <g id="matplotlib.axis_2">
    <g id="ytick_1">
     <g id="line2d_13">
      <path d="M 42.815625 325.650499 
L 426.027058 325.650499 
" clip-path="url(#pb5447b86b8)" style="fill: none; stroke-dasharray: 2.96,1.28; stroke-dashoffset: 0; stroke: #b0b0b0; stroke-opacity: 0.35; stroke-width: 0.8"/>
     </g>
     <g id="line2d_14">
      <defs>
       <path id="mf948235b2c" d="M 0 0 
L -3.5 0 
" style="stroke: #000000; stroke-width: 0.8"/>
      </defs>
      <g>
       <use xlink:href="#mf948235b2c" x="42.815625" y="325.650499" style="stroke: #000000; stroke-width: 0.8"/>
      </g>
     </g>
     <g id="text_8">
      <!-- 0.0 -->
      <g transform="translate(21.679688 329.647374) scale(0.1 -0.1)">
       <use xlink:href="#MicrosoftYaHei-30"/>
       <use xlink:href="#MicrosoftYaHei-2e" transform="translate(58.642578 0)"/>
       <use xlink:href="#MicrosoftYaHei-30" transform="translate(82.714844 0)"/>
      </g>
     </g>
    </g>
    <g id="ytick_2">
     <g id="line2d_15">
      <path d="M 42.815625 265.428189 
L 426.027058 265.428189 
" clip-path="url(#pb5447b86b8)" style="fill: none; stroke-dasharray: 2.96,1.28; stroke-dashoffset: 0; stroke: #b0b0b0; stroke-opacity: 0.35; stroke-width: 0.8"/>
     </g>
     <g id="line2d_16">
      <g>
       <use xlink:href="#mf948235b2c" x="42.815625" y="265.428189" style="stroke: #000000; stroke-width: 0.8"/>
      </g>
     </g>
     <g id="text_9">
      <!-- 0.1 -->
      <g transform="translate(21.679688 269.425064) scale(0.1 -0.1)">
       <use xlink:href="#MicrosoftYaHei-30"/>
       <use xlink:href="#MicrosoftYaHei-2e" transform="translate(58.642578 0)"/>
       <use xlink:href="#MicrosoftYaHei-31" transform="translate(82.714844 0)"/>
      </g>
     </g>
    </g>
    <g id="ytick_3">
     <g id="line2d_17">
      <path d="M 42.815625 205.205878 
L 426.027058 205.205878 
" clip-path="url(#pb5447b86b8)" style="fill: none; stroke-dasharray: 2.96,1.28; stroke-dashoffset: 0; stroke: #b0b0b0; stroke-opacity: 0.35; stroke-width: 0.8"/>
     </g>
     <g id="line2d_18">
      <g>
       <use xlink:href="#mf948235b2c" x="42.815625" y="205.205878" style="stroke: #000000; stroke-width: 0.8"/>
      </g>
     </g>
     <g id="text_10">
      <!-- 0.2 -->
      <g transform="translate(21.679688 209.202753) scale(0.1 -0.1)">
       <use xlink:href="#MicrosoftYaHei-30"/>
       <use xlink:href="#MicrosoftYaHei-2e" transform="translate(58.642578 0)"/>
       <use xlink:href="#MicrosoftYaHei-32" transform="translate(82.714844 0)"/>
      </g>
     </g>
    </g>
    <g id="ytick_4">
     <g id="line2d_19">
      <path d="M 42.815625 144.983568 
L 426.027058 144.983568 
" clip-path="url(#pb5447b86b8)" style="fill: none; stroke-dasharray: 2.96,1.28; stroke-dashoffset: 0; stroke: #b0b0b0; stroke-opacity: 0.35; stroke-width: 0.8"/>
     </g>
     <g id="line2d_20">
      <g>
       <use xlink:href="#mf948235b2c" x="42.815625" y="144.983568" style="stroke: #000000; stroke-width: 0.8"/>
      </g>
     </g>
     <g id="text_11">
      <!-- 0.3 -->
      <g transform="translate(21.679688 148.980443) scale(0.1 -0.1)">
       <use xlink:href="#MicrosoftYaHei-30"/>
       <use xlink:href="#MicrosoftYaHei-2e" transform="translate(58.642578 0)"/>
       <use xlink:href="#MicrosoftYaHei-33" transform="translate(82.714844 0)"/>
      </g>
     </g>
    </g>
    <g id="ytick_5">
     <g id="line2d_21">
      <path d="M 42.815625 84.761257 
L 426.027058 84.761257 
" clip-path="url(#pb5447b86b8)" style="fill: none; stroke-dasharray: 2.96,1.28; stroke-dashoffset: 0; stroke: #b0b0b0; stroke-opacity: 0.35; stroke-width: 0.8"/>
     </g>
     <g id="line2d_22">
      <g>
       <use xlink:href="#mf948235b2c" x="42.815625" y="84.761257" style="stroke: #000000; stroke-width: 0.8"/>
      </g>
     </g>
     <g id="text_12">
      <!-- 0.4 -->
      <g transform="translate(21.679688 88.758132) scale(0.1 -0.1)">
       <use xlink:href="#MicrosoftYaHei-30"/>
       <use xlink:href="#MicrosoftYaHei-2e" transform="translate(58.642578 0)"/>
       <use xlink:href="#MicrosoftYaHei-34" transform="translate(82.714844 0)"/>
      </g>
     </g>
    </g>
    <g id="ytick_6">
     <g id="line2d_23">
      <path d="M 42.815625 24.538947 
L 426.027058 24.538947 
" clip-path="url(#pb5447b86b8)" style="fill: none; stroke-dasharray: 2.96,1.28; stroke-dashoffset: 0; stroke: #b0b0b0; stroke-opacity: 0.35; stroke-width: 0.8"/>
     </g>
     <g id="line2d_24">
      <g>
       <use xlink:href="#mf948235b2c" x="42.815625" y="24.538947" style="stroke: #000000; stroke-width: 0.8"/>
      </g>
     </g>
     <g id="text_13">
      <!-- 0.5 -->
      <g transform="translate(21.679688 28.535822) scale(0.1 -0.1)">
       <use xlink:href="#MicrosoftYaHei-30"/>
       <use xlink:href="#MicrosoftYaHei-2e" transform="translate(58.642578 0)"/>
       <use xlink:href="#MicrosoftYaHei-35" transform="translate(82.714844 0)"/>
      </g>
     </g>
    </g>
    <g id="text_14">
     <!-- 预测含糖率 -->
     <g transform="translate(15.19375 199.4925) rotate(-90) scale(0.1 -0.1)">
      <defs>
       <path id="MicrosoftYaHei-9884" d="M 531 3872 
L 844 4147 
Q 1069 3947 1275 3747 
L 1938 4553 
L 175 4553 
L 175 4991 
L 2513 4991 
L 2513 4553 
L 1588 3434 
Q 1694 3322 1794 3216 
L 1544 2997 
L 2681 2997 
L 2681 2578 
Q 2581 2097 2369 1466 
Q 2175 1534 1938 1609 
Q 2094 2003 2213 2559 
L 1588 2559 
L 1588 -72 
Q 1588 -784 888 -784 
L 225 -784 
Q 194 -559 138 -278 
Q 450 -316 769 -316 
Q 1119 -316 1119 84 
L 1119 2559 
L 113 2559 
L 113 2997 
L 1344 2997 
Q 938 3484 531 3872 
z
M 2969 3716 
L 4025 3716 
L 4181 4572 
L 2744 4572 
L 2744 5009 
L 6294 5009 
L 6294 4572 
L 4688 4572 
L 4506 3716 
L 6006 3716 
L 6006 641 
L 5550 641 
L 5550 3284 
L 3425 3284 
L 3425 641 
L 2969 641 
L 2969 3716 
z
M 4244 3028 
L 4706 3028 
L 4706 2097 
Q 4706 1366 4519 841 
Q 5500 184 6306 -441 
L 5963 -847 
Q 5200 -197 4325 428 
Q 4263 334 4200 247 
Q 3694 -397 2613 -897 
Q 2413 -641 2263 -484 
Q 3381 -22 3831 572 
Q 4244 1109 4244 2128 
L 4244 3028 
z
" transform="scale(0.015625)"/>
       <path id="MicrosoftYaHei-6d4b" d="M 875 1753 
Q 1175 1597 1369 1522 
Q 950 -41 763 -784 
L 250 -547 
Q 619 497 875 1753 
z
M 638 5166 
Q 1019 4847 1588 4303 
Q 1381 4103 1213 3928 
Q 756 4434 313 4853 
L 638 5166 
z
M 356 3559 
Q 881 3134 1350 2716 
Q 1188 2547 988 2322 
Q 425 2878 50 3216 
L 356 3559 
z
M 5575 5284 
L 6031 5284 
L 6031 -34 
Q 6031 -753 5338 -753 
Q 5038 -753 4625 -741 
Q 4600 -509 4538 -228 
Q 4938 -272 5219 -272 
Q 5575 -272 5575 84 
L 5575 5284 
z
M 5038 634 
L 4600 634 
L 4600 4778 
L 5038 4778 
L 5038 634 
z
M 1706 4941 
L 4063 4941 
L 4063 991 
L 3613 991 
L 3613 4503 
L 2156 4503 
L 2156 991 
L 1706 991 
L 1706 4941 
z
M 2681 3966 
L 3138 3966 
L 3138 2416 
Q 3138 1466 2963 891 
Q 3775 266 4375 -234 
L 4038 -616 
Q 3538 -141 2800 472 
Q 2413 -297 1406 -884 
Q 1269 -684 1100 -484 
Q 2031 53 2375 709 
Q 2681 1278 2681 2403 
L 2681 3966 
z
" transform="scale(0.015625)"/>
      </defs>
      <use xlink:href="#MicrosoftYaHei-9884"/>
      <use xlink:href="#MicrosoftYaHei-6d4b" transform="translate(100 0)"/>
      <use xlink:href="#MicrosoftYaHei-542b" transform="translate(200 0)"/>
      <use xlink:href="#MicrosoftYaHei-7cd6" transform="translate(300 0)"/>
      <use xlink:href="#MicrosoftYaHei-7387" transform="translate(400 0)"/>
     </g>
    </g>
   </g>
   <g id="line2d_25">
    <path d="M 60.234327 312.401591 
L 408.608357 36.583409 
" clip-path="url(#pb5447b86b8)" style="fill: none; stroke-dasharray: 5.55,2.4; stroke-dashoffset: 0; stroke: #6b7280; stroke-width: 1.5"/>
   </g>
   <g id="patch_3">
    <path d="M 42.815625 326.1925 
L 42.815625 22.7925 
" style="fill: none; stroke: #000000; stroke-width: 0.8; stroke-linejoin: miter; stroke-linecap: square"/>
   </g>
   <g id="patch_4">
    <path d="M 426.027058 326.1925 
L 426.027058 22.7925 
" style="fill: none; stroke: #000000; stroke-width: 0.8; stroke-linejoin: miter; stroke-linecap: square"/>
   </g>
   <g id="patch_5">
    <path d="M 42.815625 326.1925 
L 426.027058 326.1925 
" style="fill: none; stroke: #000000; stroke-width: 0.8; stroke-linejoin: miter; stroke-linecap: square"/>
   </g>
   <g id="patch_6">
    <path d="M 42.815625 22.7925 
L 426.027058 22.7925 
" style="fill: none; stroke: #000000; stroke-width: 0.8; stroke-linejoin: miter; stroke-linecap: square"/>
   </g>
   <g id="text_15">
    <!-- 6.8 True vs Predicted Sugar Rate -->
    <g transform="translate(142.285717 16.7925) scale(0.12 -0.12)">
     <defs>
      <path id="MicrosoftYaHei-36" d="M 3181 4219 
Q 2803 4413 2391 4413 
Q 1763 4413 1381 3866 
Q 1000 3319 994 2372 
L 1009 2372 
Q 1353 3038 2106 3038 
Q 2734 3038 3109 2628 
Q 3484 2219 3484 1541 
Q 3484 831 3051 375 
Q 2619 -81 1947 -81 
Q 1209 -81 789 495 
Q 369 1072 369 2131 
Q 369 3413 920 4167 
Q 1472 4922 2372 4922 
Q 2888 4922 3181 4781 
L 3181 4219 
z
M 1031 1584 
Q 1031 1106 1286 765 
Q 1541 425 1963 425 
Q 2363 425 2613 719 
Q 2863 1013 2863 1475 
Q 2863 1975 2627 2253 
Q 2391 2531 1956 2531 
Q 1544 2531 1287 2250 
Q 1031 1969 1031 1584 
z
" transform="scale(0.015625)"/>
      <path id="MicrosoftYaHei-38" d="M 306 1350 
Q 306 1769 556 2122 
Q 806 2475 1200 2625 
Q 884 2803 700 3081 
Q 516 3359 516 3684 
Q 516 4028 692 4312 
Q 869 4597 1183 4759 
Q 1497 4922 1875 4922 
Q 2256 4922 2572 4761 
Q 2888 4600 3063 4315 
Q 3238 4031 3238 3684 
Q 3238 3366 3058 3086 
Q 2878 2806 2559 2625 
Q 2953 2472 3200 2119 
Q 3447 1766 3447 1350 
Q 3447 938 3250 611 
Q 3053 284 2690 103 
Q 2328 -78 1875 -78 
Q 1425 -78 1065 103 
Q 706 284 506 612 
Q 306 941 306 1350 
z
M 906 1378 
Q 906 947 1172 687 
Q 1438 428 1878 428 
Q 2309 428 2582 692 
Q 2856 956 2856 1378 
Q 2856 1778 2579 2051 
Q 2303 2325 1878 2325 
Q 1456 2325 1181 2058 
Q 906 1791 906 1378 
z
M 1081 3634 
Q 1081 3309 1312 3076 
Q 1544 2844 1878 2844 
Q 2206 2844 2445 3078 
Q 2684 3313 2684 3634 
Q 2684 3963 2454 4191 
Q 2225 4419 1878 4419 
Q 1534 4419 1307 4195 
Q 1081 3972 1081 3634 
z
" transform="scale(0.015625)"/>
      <path id="MicrosoftYaHei-20" transform="scale(0.015625)"/>
      <path id="MicrosoftYaHei-54" d="M 3550 4284 
L 2153 4284 
L 2153 0 
L 1525 0 
L 1525 4284 
L 134 4284 
L 134 4841 
L 3550 4841 
L 3550 4284 
z
" transform="scale(0.015625)"/>
      <path id="MicrosoftYaHei-72" d="M 2400 2850 
Q 2247 2959 1978 2959 
Q 1622 2959 1390 2626 
Q 1159 2294 1159 1750 
L 1159 0 
L 547 0 
L 547 3456 
L 1159 3456 
L 1159 2753 
L 1172 2753 
Q 1434 3516 2078 3516 
Q 2288 3516 2400 3469 
L 2400 2850 
z
" transform="scale(0.015625)"/>
      <path id="MicrosoftYaHei-75" d="M 3400 0 
L 2784 0 
L 2784 544 
L 2772 544 
Q 2425 -81 1706 -81 
Q 478 -81 478 1388 
L 478 3456 
L 1084 3456 
L 1084 1478 
Q 1084 425 1891 425 
Q 2291 425 2537 720 
Q 2784 1016 2784 1466 
L 2784 3456 
L 3400 3456 
L 3400 0 
z
" transform="scale(0.015625)"/>
      <path id="MicrosoftYaHei-65" d="M 3363 1572 
L 944 1572 
Q 959 1019 1246 717 
Q 1534 416 2050 416 
Q 2631 416 3116 788 
L 3116 241 
Q 2659 -81 1906 -81 
Q 1156 -81 736 394 
Q 316 869 316 1713 
Q 316 2506 777 3022 
Q 1238 3538 1922 3538 
Q 2600 3538 2981 3102 
Q 3363 2666 3363 1881 
L 3363 1572 
z
M 2750 2063 
Q 2747 2531 2528 2787 
Q 2309 3044 1913 3044 
Q 1547 3044 1280 2772 
Q 1013 2500 944 2063 
L 2750 2063 
z
" transform="scale(0.015625)"/>
      <path id="MicrosoftYaHei-76" d="M 3331 3456 
L 1963 0 
L 1344 0 
L 44 3456 
L 713 3456 
L 1556 988 
Q 1659 691 1678 491 
L 1694 491 
Q 1725 753 1803 975 
L 2688 3456 
L 3331 3456 
z
" transform="scale(0.015625)"/>
      <path id="MicrosoftYaHei-73" d="M 353 747 
Q 816 413 1350 413 
Q 2066 413 2066 881 
Q 2066 1081 1909 1211 
Q 1753 1341 1275 1519 
Q 700 1750 528 1976 
Q 356 2203 356 2525 
Q 356 2984 745 3261 
Q 1134 3538 1703 3538 
Q 2144 3538 2522 3384 
L 2522 2794 
Q 2134 3044 1644 3044 
Q 1350 3044 1165 2916 
Q 981 2788 981 2578 
Q 981 2372 1114 2256 
Q 1247 2141 1703 1959 
Q 2281 1744 2484 1512 
Q 2688 1281 2688 941 
Q 2688 466 2298 192 
Q 1909 -81 1291 -81 
Q 753 -81 353 122 
L 353 747 
z
" transform="scale(0.015625)"/>
      <path id="MicrosoftYaHei-50" d="M 1250 1809 
L 1250 0 
L 625 0 
L 625 4841 
L 2000 4841 
Q 2784 4841 3217 4462 
Q 3650 4084 3650 3381 
Q 3650 2669 3144 2226 
Q 2638 1784 1878 1809 
L 1250 1809 
z
M 1250 4291 
L 1250 2359 
L 1828 2359 
Q 2400 2359 2697 2617 
Q 2994 2875 2994 3356 
Q 2994 4291 1888 4291 
L 1250 4291 
z
" transform="scale(0.015625)"/>
      <path id="MicrosoftYaHei-64" d="M 3547 0 
L 2934 0 
L 2934 575 
L 2922 575 
Q 2544 -81 1747 -81 
Q 1091 -81 703 386 
Q 316 853 316 1647 
Q 316 2503 753 3020 
Q 1191 3538 1897 3538 
Q 2603 3538 2922 2988 
L 2934 2988 
L 2934 5116 
L 3547 5116 
L 3547 0 
z
M 2938 2056 
Q 2938 2472 2664 2751 
Q 2391 3031 1991 3031 
Q 1503 3031 1222 2667 
Q 941 2303 941 1675 
Q 941 1097 1211 761 
Q 1481 425 1931 425 
Q 2375 425 2656 754 
Q 2938 1084 2938 1575 
L 2938 2056 
z
" transform="scale(0.015625)"/>
      <path id="MicrosoftYaHei-69" d="M 472 4675 
Q 472 4838 583 4948 
Q 694 5059 856 5059 
Q 1022 5059 1136 4950 
Q 1250 4841 1250 4675 
Q 1250 4513 1136 4405 
Q 1022 4297 856 4297 
Q 691 4297 581 4405 
Q 472 4513 472 4675 
z
M 544 0 
L 544 3456 
L 1156 3456 
L 1156 0 
L 544 0 
z
" transform="scale(0.015625)"/>
      <path id="MicrosoftYaHei-63" d="M 2934 156 
Q 2538 -81 1978 -81 
Q 1228 -81 772 400 
Q 316 881 316 1647 
Q 316 2497 808 3017 
Q 1300 3538 2125 3538 
Q 2600 3538 2938 3369 
L 2938 2763 
Q 2572 3031 2125 3031 
Q 1600 3031 1270 2667 
Q 941 2303 941 1697 
Q 941 1100 1252 762 
Q 1563 425 2091 425 
Q 2538 425 2934 719 
L 2934 156 
z
" transform="scale(0.015625)"/>
      <path id="MicrosoftYaHei-74" d="M 2206 34 
Q 2006 -75 1666 -75 
Q 738 -75 738 953 
L 738 2950 
L 144 2950 
L 144 3456 
L 738 3456 
L 738 4288 
L 1347 4481 
L 1347 3456 
L 2206 3456 
L 2206 2950 
L 1347 2950 
L 1347 1063 
Q 1347 722 1462 575 
Q 1578 428 1847 428 
Q 2053 428 2206 544 
L 2206 34 
z
" transform="scale(0.015625)"/>
      <path id="MicrosoftYaHei-53" d="M 400 909 
Q 622 716 994 591 
Q 1366 466 1700 466 
Q 2719 466 2719 1191 
Q 2719 1394 2609 1556 
Q 2500 1719 2309 1844 
Q 2119 1969 1594 2228 
Q 866 2591 634 2902 
Q 403 3213 403 3613 
Q 403 4216 887 4569 
Q 1372 4922 2109 4922 
Q 2831 4922 3169 4747 
L 3169 4066 
Q 2731 4369 2063 4369 
Q 1619 4369 1339 4183 
Q 1059 3997 1059 3666 
Q 1059 3372 1253 3187 
Q 1447 3003 2094 2684 
Q 2806 2344 3090 2003 
Q 3375 1663 3375 1238 
Q 3375 600 2912 259 
Q 2450 -81 1628 -81 
Q 1341 -81 958 -1 
Q 575 78 400 197 
L 400 909 
z
" transform="scale(0.015625)"/>
      <path id="MicrosoftYaHei-67" d="M 3547 291 
Q 3547 -1628 1684 -1628 
Q 1041 -1628 566 -1388 
L 566 -797 
Q 1144 -1119 1675 -1119 
Q 2934 -1119 2934 206 
L 2934 572 
L 2922 572 
Q 2528 -81 1747 -81 
Q 1097 -81 706 384 
Q 316 850 316 1619 
Q 316 2503 747 3020 
Q 1178 3538 1897 3538 
Q 2588 3538 2922 2988 
L 2934 2988 
L 2934 3456 
L 3547 3456 
L 3547 291 
z
M 2934 2056 
Q 2938 2456 2666 2743 
Q 2394 3031 1997 3031 
Q 1497 3031 1219 2664 
Q 941 2297 941 1656 
Q 941 1106 1209 765 
Q 1478 425 1922 425 
Q 2369 425 2653 750 
Q 2938 1075 2934 1575 
L 2934 2056 
z
" transform="scale(0.015625)"/>
      <path id="MicrosoftYaHei-61" d="M 628 3216 
Q 1144 3538 1819 3538 
Q 3069 3538 3069 2225 
L 3069 0 
L 2463 0 
L 2463 534 
L 2447 534 
Q 2088 -81 1388 -81 
Q 884 -81 587 191 
Q 291 463 291 925 
Q 291 1894 1438 2053 
L 2463 2197 
Q 2463 3044 1763 3044 
Q 1141 3044 628 2625 
L 628 3216 
z
M 1653 1625 
Q 1228 1569 1067 1412 
Q 906 1256 906 975 
Q 906 728 1081 572 
Q 1256 416 1544 416 
Q 1944 416 2203 697 
Q 2463 978 2463 1403 
L 2463 1734 
L 1653 1625 
z
" transform="scale(0.015625)"/>
      <path id="MicrosoftYaHei-52" d="M 4159 0 
L 3422 0 
L 2619 1344 
Q 2378 1747 2178 1892 
Q 1978 2038 1700 2038 
L 1250 2038 
L 1250 0 
L 625 0 
L 625 4841 
L 2100 4841 
Q 2806 4841 3206 4500 
Q 3606 4159 3606 3547 
Q 3606 2541 2531 2241 
L 2531 2225 
Q 2731 2141 2876 1984 
Q 3022 1828 3253 1450 
L 4159 0 
z
M 1250 4294 
L 1250 2584 
L 1988 2584 
Q 2416 2584 2683 2834 
Q 2950 3084 2950 3491 
Q 2950 3869 2706 4081 
Q 2463 4294 1997 4294 
L 1250 4294 
z
" transform="scale(0.015625)"/>
     </defs>
     <use xlink:href="#MicrosoftYaHei-36"/>
     <use xlink:href="#MicrosoftYaHei-2e" transform="translate(58.642578 0)"/>
     <use xlink:href="#MicrosoftYaHei-38" transform="translate(82.714844 0)"/>
     <use xlink:href="#MicrosoftYaHei-20" transform="translate(141.357422 0)"/>
     <use xlink:href="#MicrosoftYaHei-54" transform="translate(170.947266 0)"/>
     <use xlink:href="#MicrosoftYaHei-72" transform="translate(218.896484 0)"/>
     <use xlink:href="#MicrosoftYaHei-75" transform="translate(257.080078 0)"/>
     <use xlink:href="#MicrosoftYaHei-65" transform="translate(318.701172 0)"/>
     <use xlink:href="#MicrosoftYaHei-20" transform="translate(375.439453 0)"/>
     <use xlink:href="#MicrosoftYaHei-76" transform="translate(405.029297 0)"/>
     <use xlink:href="#MicrosoftYaHei-73" transform="translate(457.519531 0)"/>
     <use xlink:href="#MicrosoftYaHei-20" transform="translate(503.808594 0)"/>
     <use xlink:href="#MicrosoftYaHei-50" transform="translate(533.398438 0)"/>
     <use xlink:href="#MicrosoftYaHei-72" transform="translate(594.580078 0)"/>
     <use xlink:href="#MicrosoftYaHei-65" transform="translate(631.388672 0)"/>
     <use xlink:href="#MicrosoftYaHei-64" transform="translate(688.126953 0)"/>
     <use xlink:href="#MicrosoftYaHei-69" transform="translate(752.091797 0)"/>
     <use xlink:href="#MicrosoftYaHei-63" transform="translate(778.703125 0)"/>
     <use xlink:href="#MicrosoftYaHei-74" transform="translate(828.849609 0)"/>
     <use xlink:href="#MicrosoftYaHei-65" transform="translate(865.230469 0)"/>
     <use xlink:href="#MicrosoftYaHei-64" transform="translate(921.96875 0)"/>
     <use xlink:href="#MicrosoftYaHei-20" transform="translate(985.933594 0)"/>
     <use xlink:href="#MicrosoftYaHei-53" transform="translate(1015.523438 0)"/>
     <use xlink:href="#MicrosoftYaHei-75" transform="translate(1073.238281 0)"/>
     <use xlink:href="#MicrosoftYaHei-67" transform="translate(1134.859375 0)"/>
     <use xlink:href="#MicrosoftYaHei-61" transform="translate(1198.824219 0)"/>
     <use xlink:href="#MicrosoftYaHei-72" transform="translate(1254.097656 0)"/>
     <use xlink:href="#MicrosoftYaHei-20" transform="translate(1292.28125 0)"/>
     <use xlink:href="#MicrosoftYaHei-52" transform="translate(1321.871094 0)"/>
     <use xlink:href="#MicrosoftYaHei-61" transform="translate(1387.154297 0)"/>
     <use xlink:href="#MicrosoftYaHei-74" transform="translate(1442.427734 0)"/>
     <use xlink:href="#MicrosoftYaHei-65" transform="translate(1478.808594 0)"/>
    </g>
   </g>
   <g id="legend_1">
    <g id="patch_7">
     <path d="M 49.815625 77.231562 
L 121.815625 77.231562 
Q 123.815625 77.231562 123.815625 75.231562 
L 123.815625 29.7925 
Q 123.815625 27.7925 121.815625 27.7925 
L 49.815625 27.7925 
Q 47.815625 27.7925 47.815625 29.7925 
L 47.815625 75.231562 
Q 47.815625 77.231562 49.815625 77.231562 
z
" style="fill: #ffffff; opacity: 0.8; stroke: #cccccc; stroke-linejoin: miter"/>
    </g>
    <g id="line2d_26">
     <path d="M 51.815625 36.28625 
L 61.815625 36.28625 
L 71.815625 36.28625 
" style="fill: none; stroke-dasharray: 5.55,2.4; stroke-dashoffset: 0; stroke: #6b7280; stroke-width: 1.5"/>
    </g>
    <g id="text_16">
     <!-- 理想预测 -->
     <g transform="translate(79.815625 39.78625) scale(0.1 -0.1)">
      <defs>
       <path id="MicrosoftYaHei-7406" d="M 2031 -166 
L 3988 -166 
L 3988 734 
L 2394 734 
L 2394 1172 
L 3988 1172 
L 3988 1997 
L 2988 1997 
L 2988 1766 
L 2525 1766 
L 2525 4991 
L 5913 4991 
L 5913 1766 
L 5450 1766 
L 5450 1997 
L 4450 1997 
L 4450 1172 
L 6044 1172 
L 6044 734 
L 4450 734 
L 4450 -166 
L 6319 -166 
L 6319 -603 
L 2031 -603 
L 2031 -166 
z
M 44 203 
Q 525 319 975 434 
L 975 2328 
L 194 2328 
L 194 2766 
L 975 2766 
L 975 4328 
L 131 4328 
L 131 4766 
L 2281 4766 
L 2281 4328 
L 1438 4328 
L 1438 2766 
L 2231 2766 
L 2231 2328 
L 1438 2328 
L 1438 559 
Q 1850 675 2238 791 
Q 2269 509 2306 303 
Q 1238 16 213 -303 
L 44 203 
z
M 4450 2422 
L 5450 2422 
L 5450 3291 
L 4450 3291 
L 4450 2422 
z
M 2988 2422 
L 3988 2422 
L 3988 3291 
L 2988 3291 
L 2988 2422 
z
M 5450 4566 
L 4450 4566 
L 4450 3703 
L 5450 3703 
L 5450 4566 
z
M 2988 3703 
L 3988 3703 
L 3988 4566 
L 2988 4566 
L 2988 3703 
z
" transform="scale(0.015625)"/>
       <path id="MicrosoftYaHei-60f3" d="M 2863 1441 
L 2863 5009 
L 5813 5009 
L 5813 1397 
L 5350 1397 
L 5350 1591 
L 3325 1591 
L 3325 1441 
L 2863 1441 
z
M 106 2147 
Q 794 2897 1194 3891 
L 200 3891 
L 200 4303 
L 1250 4303 
L 1250 5259 
L 1700 5259 
L 1700 4303 
L 2581 4303 
L 2581 3891 
L 1700 3891 
L 1700 3297 
L 1900 3491 
Q 2356 3141 2700 2803 
L 2369 2472 
Q 2063 2841 1700 3128 
L 1700 1422 
L 1250 1422 
L 1250 3103 
Q 844 2272 319 1653 
Q 231 1922 106 2147 
z
M 1719 1203 
L 2194 1203 
L 2194 109 
Q 2194 -278 2600 -278 
L 3831 -278 
Q 4269 -278 4344 78 
Q 4400 309 4463 753 
Q 4675 666 4956 566 
Q 4869 122 4788 -147 
Q 4625 -716 3944 -716 
L 2488 -716 
Q 1719 -716 1719 66 
L 1719 1203 
z
M 3325 2016 
L 5350 2016 
L 5350 2609 
L 3325 2609 
L 3325 2016 
z
M 3325 4584 
L 3325 3997 
L 5350 3997 
L 5350 4584 
L 3325 4584 
z
M 3325 3009 
L 5350 3009 
L 5350 3597 
L 3325 3597 
L 3325 3009 
z
M 719 1128 
L 1188 966 
Q 894 122 569 -453 
Q 406 -366 119 -228 
Q 481 347 719 1128 
z
M 5094 897 
L 5469 1159 
Q 5763 803 6319 53 
L 5881 -241 
Q 5488 372 5094 897 
z
M 2613 1072 
L 2913 1384 
Q 3344 1047 3788 647 
L 3438 284 
Q 3013 734 2613 1072 
z
" transform="scale(0.015625)"/>
      </defs>
      <use xlink:href="#MicrosoftYaHei-7406"/>
      <use xlink:href="#MicrosoftYaHei-60f3" transform="translate(100 0)"/>
      <use xlink:href="#MicrosoftYaHei-9884" transform="translate(200 0)"/>
      <use xlink:href="#MicrosoftYaHei-6d4b" transform="translate(300 0)"/>
     </g>
    </g>
    <g id="PathCollection_3">
     <g>
      <use xlink:href="#m0bf32a2a34" x="61.815625" y="52.640937" style="fill: #1f77b4; stroke: #1f77b4"/>
     </g>
    </g>
    <g id="text_17">
     <!-- linear -->
     <g transform="translate(79.815625 55.265937) scale(0.1 -0.1)">
      <defs>
       <path id="MicrosoftYaHei-6c" d="M 544 0 
L 544 5116 
L 1156 5116 
L 1156 0 
L 544 0 
z
" transform="scale(0.015625)"/>
       <path id="MicrosoftYaHei-6e" d="M 3469 0 
L 2859 0 
L 2859 1966 
Q 2859 3031 2081 3031 
Q 1678 3031 1418 2731 
Q 1159 2431 1159 1972 
L 1159 0 
L 547 0 
L 547 3456 
L 1159 3456 
L 1159 2884 
L 1172 2884 
Q 1563 3538 2306 3538 
Q 2875 3538 3172 3173 
Q 3469 2809 3469 2113 
L 3469 0 
z
" transform="scale(0.015625)"/>
      </defs>
      <use xlink:href="#MicrosoftYaHei-6c"/>
      <use xlink:href="#MicrosoftYaHei-69" transform="translate(26.611328 0)"/>
      <use xlink:href="#MicrosoftYaHei-6e" transform="translate(53.222656 0)"/>
      <use xlink:href="#MicrosoftYaHei-65" transform="translate(114.84375 0)"/>
      <use xlink:href="#MicrosoftYaHei-61" transform="translate(171.582031 0)"/>
      <use xlink:href="#MicrosoftYaHei-72" transform="translate(226.855469 0)"/>
     </g>
    </g>
    <g id="PathCollection_4">
     <g>
      <use xlink:href="#m83a8589f9c" x="61.815625" y="68.120625" style="fill: #ff7f0e; stroke: #ff7f0e"/>
     </g>
    </g>
    <g id="text_18">
     <!-- rbf -->
     <g transform="translate(79.815625 70.745625) scale(0.1 -0.1)">
      <defs>
       <path id="MicrosoftYaHei-62" d="M 1159 488 
L 1159 0 
L 547 0 
L 547 5116 
L 1159 5116 
L 1159 2859 
L 1172 2859 
Q 1578 3538 2359 3538 
Q 3009 3538 3392 3080 
Q 3775 2622 3775 1828 
Q 3775 953 3345 436 
Q 2916 -81 2200 -81 
Q 1525 -81 1172 488 
L 1159 488 
z
M 1156 1422 
Q 1156 1003 1428 714 
Q 1700 425 2109 425 
Q 2597 425 2872 800 
Q 3147 1175 3147 1838 
Q 3147 2384 2890 2707 
Q 2634 3031 2191 3031 
Q 1741 3031 1448 2709 
Q 1156 2388 1156 1891 
L 1156 1422 
z
" transform="scale(0.015625)"/>
       <path id="MicrosoftYaHei-66" d="M 2319 4594 
Q 2147 4684 1947 4684 
Q 1372 4684 1372 3972 
L 1372 3456 
L 2181 3456 
L 2181 2950 
L 1372 2950 
L 1372 0 
L 766 0 
L 766 2950 
L 175 2950 
L 175 3456 
L 766 3456 
L 766 4000 
Q 766 4556 1086 4873 
Q 1406 5191 1900 5191 
Q 2163 5191 2319 5131 
L 2319 4594 
z
" transform="scale(0.015625)"/>
      </defs>
      <use xlink:href="#MicrosoftYaHei-72"/>
      <use xlink:href="#MicrosoftYaHei-62" transform="translate(38.183594 0)"/>
      <use xlink:href="#MicrosoftYaHei-66" transform="translate(101.550781 0)"/>
     </g>
    </g>
   </g>
  </g>
 </g>
 <defs>
  <clipPath id="pb5447b86b8">
   <rect x="42.815625" y="22.7925" width="383.211433" height="303.4"/>
  </clipPath>
 </defs>
</svg>
